<?xml version="1.0" standalone="no"?>
<!DOCTYPE svg PUBLIC "-//W3C//DTD SVG 20010904//EN"
 "http://www.w3.org/TR/2001/REC-SVG-20010904/DTD/svg10.dtd">
<svg version="1.0" xmlns="http://www.w3.org/2000/svg"
 width="664.000000pt" height="793.000000pt" viewBox="0 0 664.000000 793.000000"
 preserveAspectRatio="xMidYMid meet">

<g transform="translate(0.000000,793.000000) scale(0.100000,-0.100000)"
fill="#000000" stroke="none">
<path d="M5315 7650 c-18 -8 -17 -9 8 -9 15 -1 27 4 27 9 0 12 -8 12 -35 0z"/>
<path d="M5630 7650 c0 -5 6 -10 14 -10 8 0 18 5 21 10 3 6 -3 10 -14 10 -12
0 -21 -4 -21 -10z"/>
<path d="M5430 7643 c-14 -3 -29 -9 -34 -14 -6 -5 -30 -9 -55 -9 -52 0 -241
-40 -241 -51 0 -4 6 -9 13 -12 6 -2 3 -3 -8 -1 -22 4 -204 -49 -247 -72 -14
-8 -32 -14 -40 -14 -32 0 -90 -23 -108 -42 -16 -17 -22 -19 -35 -8 -12 10 -15
10 -15 0 0 -8 -3 -11 -6 -8 -8 9 -75 -20 -99 -42 -11 -10 -45 -31 -75 -46 -30
-15 -66 -35 -79 -46 -29 -22 -48 -24 -31 -3 7 8 18 15 25 15 6 0 20 9 30 20
10 11 23 20 29 20 12 0 65 39 54 40 -34 1 -181 -97 -174 -116 6 -16 -10 -29
-19 -15 -6 11 -71 -24 -83 -45 -11 -21 -100 -74 -122 -74 -11 0 -20 -3 -20 -8
0 -4 -38 -32 -85 -61 -47 -30 -85 -58 -85 -62 0 -13 -92 -80 -104 -76 -6 2
-19 -7 -29 -20 -10 -13 -25 -23 -34 -23 -8 0 -29 -12 -47 -26 -146 -122 -377
-340 -387 -365 -4 -8 -32 -38 -63 -66 -31 -28 -56 -57 -56 -64 0 -6 -24 -42
-53 -78 -29 -36 -60 -77 -69 -91 -9 -14 -62 -72 -117 -130 -55 -58 -101 -108
-101 -112 0 -4 -14 -22 -30 -40 -54 -58 -175 -249 -250 -393 -104 -199 -106
-204 -128 -270 -12 -33 -37 -103 -57 -155 -73 -194 -107 -363 -156 -790 -23
-204 -27 -220 -51 -240 -13 -10 -19 -22 -15 -26 4 -5 12 -2 17 6 8 12 10 10
10 -7 0 -13 -6 -23 -14 -23 -15 0 -29 -27 -21 -40 8 -13 -29 -17 -53 -5 -20
11 -21 14 -7 25 8 7 15 17 15 23 0 7 -4 7 -12 -1 -7 -7 -19 -12 -29 -12 -9 0
-28 -9 -43 -21 -14 -11 -30 -18 -36 -14 -5 3 -19 1 -31 -6 -17 -9 -24 -8 -31
2 -8 11 -9 10 -4 -4 3 -11 0 -17 -10 -17 -8 0 -26 -12 -39 -27 -25 -29 -33
-63 -14 -63 6 0 9 -5 7 -12 -2 -6 9 -25 24 -42 27 -29 41 -63 16 -38 -18 18
-35 15 -41 -8 -4 -14 -1 -20 8 -18 8 2 14 -1 15 -7 0 -5 -14 -13 -32 -16 l-33
-6 30 -2 29 -1 -47 -47 c-26 -25 -47 -53 -47 -61 0 -9 -3 -13 -6 -9 -9 8 -30
-14 -38 -41 -5 -13 -3 -22 3 -22 6 0 11 7 11 15 0 8 4 15 9 15 5 0 19 16 32
35 26 38 47 49 73 39 14 -5 15 -9 4 -15 -11 -7 -10 -11 2 -20 12 -8 10 -9 -7
-4 -17 5 -22 3 -17 -8 4 -11 -1 -13 -23 -9 -28 5 -28 5 -8 -15 15 -16 25 -18
44 -11 13 5 26 6 29 3 3 -3 0 -5 -6 -5 -7 0 -11 -5 -9 -11 1 -6 -18 -22 -42
-35 -24 -13 -40 -24 -35 -24 16 -1 -40 -29 -58 -30 -10 0 -17 -6 -15 -12 1 -9
-12 -14 -38 -15 -50 -3 -121 -20 -87 -22 12 -1 22 -7 22 -16 0 -8 4 -15 9 -15
5 0 11 7 15 15 7 19 30 19 46 0 12 -14 15 -14 31 1 11 10 19 13 19 7 0 -14
-35 -44 -43 -37 -9 9 -67 -19 -67 -32 0 -6 -9 -19 -20 -29 -22 -20 -28 -5 -7
17 14 13 19 48 7 48 -12 0 -42 -61 -36 -76 3 -8 -1 -14 -9 -14 -8 0 -21 -13
-30 -30 -18 -34 -18 -40 -5 -40 6 0 10 6 10 14 0 16 18 31 27 23 7 -8 -30 -56
-44 -57 -13 0 -43 -38 -43 -54 0 -6 5 -5 12 2 7 7 19 12 27 12 12 0 9 -6 -8
-19 -16 -12 -21 -23 -16 -32 6 -11 5 -12 -6 -1 -16 15 -29 16 -29 2 0 -6 -12
-28 -26 -50 -15 -22 -24 -43 -21 -46 3 -4 -1 -13 -9 -21 -8 -9 -18 -13 -21
-10 -3 3 -11 1 -18 -6 -12 -11 -31 -25 -65 -48 -13 -8 -13 -11 2 -23 20 -14
24 -36 8 -36 -5 0 -10 5 -10 11 0 6 -8 3 -17 -7 -10 -10 -18 -20 -18 -24 0
-10 -33 -40 -44 -40 -6 0 -8 -6 -5 -14 3 -9 -5 -21 -20 -31 -14 -10 -24 -21
-21 -25 3 -5 -8 -18 -24 -29 -16 -12 -28 -28 -27 -37 0 -9 -5 -19 -12 -21 -6
-3 -11 1 -9 9 2 7 -1 3 -7 -9 -10 -24 -42 -31 -48 -11 -2 6 -10 8 -17 4 -9 -6
-7 -12 9 -26 24 -21 26 -30 5 -30 -8 0 -15 -8 -15 -19 0 -13 -10 -20 -31 -25
-25 -5 -29 -9 -24 -26 4 -12 1 -27 -5 -35 -6 -8 -9 -19 -5 -25 3 -5 -7 -18
-24 -28 -17 -9 -31 -20 -31 -24 0 -5 -5 -8 -11 -8 -6 0 -17 -7 -25 -15 -19
-18 -6 -20 21 -2 11 7 34 18 50 25 l30 12 -33 -29 c-23 -19 -29 -30 -20 -33
15 -6 -72 -48 -97 -48 -28 0 -85 -31 -85 -46 0 -8 -4 -14 -10 -14 -5 0 -10 5
-10 10 0 6 -5 10 -11 10 -8 0 -8 -4 1 -15 10 -12 9 -18 -5 -31 -11 -11 -20
-13 -27 -6 -6 6 -6 12 1 16 6 4 11 20 11 35 0 16 9 40 20 54 25 31 28 56 5 37
-13 -11 -14 -10 -8 6 3 10 9 21 12 24 4 3 17 27 30 53 14 26 58 83 98 125 40
42 76 86 79 97 3 11 16 28 28 37 11 10 15 18 9 18 -15 0 -17 36 -3 45 6 3 10
16 10 28 0 13 7 33 16 45 8 12 12 22 9 22 -3 0 8 25 24 55 18 32 33 77 36 105
5 54 -7 66 -23 22 -5 -15 -21 -39 -35 -52 -15 -14 -27 -31 -27 -37 0 -7 -4
-13 -8 -13 -10 0 -92 -154 -92 -172 0 -7 -9 -24 -19 -37 -10 -14 -16 -31 -14
-39 3 -8 2 -17 -3 -21 -5 -3 -18 -32 -27 -63 -10 -32 -23 -58 -28 -58 -6 0 -8
8 -5 18 18 59 57 314 72 469 16 172 16 186 0 269 -28 137 -73 224 -62 117 3
-27 8 -88 11 -138 3 -49 10 -140 15 -200 8 -86 6 -133 -5 -210 -20 -134 -21
-135 -58 -136 -18 -1 -24 -3 -14 -6 9 -2 17 -9 17 -15 0 -6 6 -6 15 2 19 16
19 3 0 -30 -12 -21 -14 -22 -15 -6 0 12 -5 16 -16 12 -9 -3 -18 -6 -20 -6 -2
0 -4 -6 -4 -14 0 -9 -13 -16 -32 -19 -30 -4 -31 -5 -10 -12 35 -12 26 -21 -19
-17 -30 3 -39 8 -35 18 8 20 -24 31 -35 13 -8 -13 -13 -6 -10 14 1 4 -10 12
-24 17 -14 5 -25 17 -25 25 0 12 -6 15 -20 10 -15 -5 -18 -3 -14 9 3 9 11 16
16 16 6 0 -1 9 -15 20 -14 12 -24 27 -21 35 3 7 -4 19 -16 25 -20 11 -21 10
-15 -9 5 -15 3 -19 -8 -16 -9 4 -12 16 -9 37 4 28 3 30 -18 25 -16 -4 -24 -1
-27 14 -3 10 -9 19 -14 19 -5 0 -9 6 -9 13 0 7 -12 24 -26 36 l-26 22 8 -23
c4 -13 17 -37 30 -53 13 -17 37 -62 54 -100 17 -39 38 -82 46 -97 8 -14 14
-36 14 -48 0 -12 4 -29 9 -38 5 -9 12 -36 16 -59 6 -37 4 -43 -12 -44 -13 -1
-11 -3 6 -8 28 -8 41 -31 17 -31 -20 0 -21 -19 -1 -26 23 -9 18 -20 -21 -44
-34 -22 -43 -51 -16 -56 7 -1 8 0 2 3 -17 8 -11 33 8 33 10 0 23 5 30 12 14
14 17 11 26 -27 7 -28 6 -29 -7 -10 -15 19 -16 19 -28 -8 -7 -15 -18 -27 -26
-27 -7 0 -13 -4 -13 -10 0 -13 16 -13 41 0 13 7 19 7 19 0 0 -5 -7 -10 -15
-10 -8 0 -15 -4 -15 -10 0 -5 -6 -10 -14 -10 -24 0 -29 -20 -12 -39 12 -14 14
-24 7 -42 l-9 -24 -10 25 -11 25 0 -27 c-1 -16 4 -28 11 -28 6 0 4 -6 -7 -13
-13 -10 -16 -21 -12 -38 5 -18 1 -29 -13 -39 -11 -8 -20 -20 -20 -27 0 -7 -6
-13 -14 -13 -8 0 -18 -5 -22 -11 -4 -7 0 -9 13 -5 17 5 22 1 27 -25 4 -23 1
-38 -10 -51 -10 -11 -12 -18 -6 -18 7 0 12 -5 12 -10 0 -7 -6 -7 -19 -1 -10 6
-21 7 -25 4 -4 -4 6 -12 21 -19 19 -8 22 -13 11 -13 -21 -1 -24 -17 -5 -24 8
-3 6 -9 -7 -19 -11 -8 -16 -20 -12 -27 4 -6 0 -14 -9 -17 -9 -4 -14 -13 -11
-20 3 -8 0 -14 -5 -14 -6 0 -9 -9 -6 -20 3 -11 -1 -27 -9 -34 -8 -8 -14 -19
-14 -25 0 -6 -7 -11 -15 -11 -9 0 -15 -6 -13 -13 4 -20 -12 -67 -23 -67 -5 0
-12 7 -15 15 -7 18 -34 20 -34 2 0 -7 5 -18 12 -25 9 -9 7 -12 -10 -12 -32 0
-74 47 -79 92 -4 22 -1 38 5 38 5 0 12 13 14 30 4 26 2 29 -18 24 -12 -3 -25
-1 -28 5 -9 14 -26 14 -26 1 0 -5 7 -10 16 -10 14 0 14 -3 4 -15 -7 -8 -20
-15 -30 -15 -15 0 -18 -7 -15 -38 1 -20 0 -25 -2 -10 -3 20 -10 28 -24 28 -22
0 -26 28 -4 36 20 8 19 17 -5 32 -20 12 -20 10 -20 -863 l0 -875 3183 0 c1816
0 3176 4 3168 9 -8 6 -10 14 -5 22 5 8 10 21 11 29 3 15 3 112 1 141 -2 21
-70 66 -119 79 -20 6 -42 17 -49 25 -14 17 -10 18 22 6 43 -16 100 -23 93 -12
-3 6 2 11 12 12 10 0 13 3 6 6 -7 2 -13 13 -13 24 0 27 -56 59 -105 60 -32 0
-36 2 -20 9 18 8 18 9 2 9 -10 1 -20 8 -24 17 -4 12 -8 12 -13 4 -8 -12 -33
60 -47 132 -3 18 -12 46 -20 62 -9 16 -13 41 -9 57 3 17 1 29 -5 29 -6 0 -7
-4 -4 -10 3 -5 2 -10 -4 -10 -17 0 -23 20 -12 34 15 17 -15 86 -37 86 -8 0
-12 6 -9 14 3 8 1 17 -6 20 -9 3 -8 8 3 15 15 10 13 12 -12 15 -7 0 -15 10
-18 21 -6 25 -30 58 -49 70 -9 5 -6 -6 8 -29 13 -20 36 -77 52 -127 16 -50 49
-136 73 -192 24 -56 49 -129 56 -162 6 -33 18 -75 26 -93 8 -18 14 -36 14 -41
0 -9 -64 10 -115 34 -27 13 -31 12 -40 -6 -8 -14 -14 -16 -22 -8 -12 12 -53 3
-53 -12 0 -5 -7 -9 -15 -9 -8 0 -30 -14 -48 -30 -35 -30 -57 -38 -57 -20 0 6
-7 10 -15 10 -8 0 -15 -8 -15 -17 0 -13 -9 -19 -30 -20 l-30 -2 20 21 c21 23
26 38 12 38 -8 0 -56 -50 -57 -60 -2 -20 -34 -50 -52 -50 -13 0 -22 -5 -21
-12 2 -7 -7 -14 -20 -16 -16 -2 -22 -8 -18 -18 3 -8 -1 -14 -9 -14 -8 0 -15
-4 -15 -9 0 -5 -14 -3 -30 6 -35 17 -31 36 6 27 27 -7 33 10 7 20 -14 6 -14 9
6 22 12 9 25 13 29 9 3 -3 0 -10 -8 -15 -11 -7 -10 -9 7 -7 18 1 20 4 11 20
-5 10 -7 25 -4 33 8 21 -11 17 -34 -8 l-20 -22 16 55 c8 30 24 61 35 71 10 9
19 29 19 44 0 15 3 24 7 21 11 -12 32 27 33 61 0 17 5 32 10 32 6 0 10 15 10
34 0 42 8 66 24 66 6 0 12 14 12 32 1 18 6 34 13 36 6 2 11 12 11 23 0 10 5
19 11 19 6 0 8 7 5 16 -7 18 12 40 40 46 15 3 18 11 16 40 -2 30 2 40 22 53
22 14 29 34 38 103 1 7 7 11 14 8 9 -3 9 3 0 27 -6 18 -14 34 -17 37 -3 3 -11
15 -18 27 -21 42 7 24 44 -27 53 -72 61 -68 11 5 -49 69 -49 73 -16 143 16 35
30 69 30 76 1 19 56 136 62 131 3 -3 13 6 23 21 15 24 16 26 1 21 -20 -8 -20
-5 3 39 22 41 77 104 91 104 12 0 31 -36 23 -44 -15 -15 47 -123 117 -201 57
-64 112 -143 174 -248 32 -54 60 -96 63 -94 2 3 -3 17 -12 31 -9 14 -13 31 -9
37 4 7 9 38 11 68 16 243 16 248 25 256 4 4 4 20 1 36 -3 19 0 33 11 44 18 19
21 45 5 45 -6 0 -9 5 -7 11 2 6 7 10 12 9 17 -3 24 23 13 47 -5 12 -14 23 -18
23 -4 0 -10 7 -13 16 -5 13 1 12 30 -5 33 -19 36 -20 29 -4 -15 36 -14 114 1
120 11 4 14 19 12 57 -2 28 -7 54 -12 58 -5 3 -2 18 8 32 16 25 16 28 0 44
-16 16 -16 17 -1 20 9 2 17 10 17 18 0 7 12 21 28 31 15 9 35 26 44 37 17 20
18 163 18 2449 0 2149 -2 2428 -15 2433 -8 4 -15 10 -15 15 0 4 7 6 15 3 13
-5 15 17 15 173 l-1 179 -30 18 c-19 11 -28 23 -25 32 6 17 1 17 -25 4 -24
-14 -25 4 -3 49 24 47 12 47 -19 0 -30 -45 -34 -65 -14 -72 6 -2 9 -8 5 -12
-8 -9 -38 18 -38 34 0 6 -5 11 -12 11 -6 0 -4 7 5 18 10 10 17 23 17 28 0 5
-7 0 -15 -10 -8 -11 -18 -17 -21 -13 -11 10 -34 -13 -34 -34 0 -10 -4 -21 -10
-24 -6 -4 -10 13 -10 44 0 39 4 51 15 51 8 0 15 5 15 10 0 24 -31 8 -36 -19
-4 -17 -13 -32 -20 -35 -11 -4 -12 -1 -5 12 6 11 6 24 0 33 -5 7 -9 10 -9 5 0
-5 -6 -3 -14 3 -11 9 -15 8 -20 -5 -3 -9 -4 -20 0 -25 3 -5 1 -17 -5 -26 -9
-16 -11 -14 -17 14 -4 21 -11 30 -20 26 -8 -3 -14 -11 -14 -18 0 -8 -5 -17
-11 -21 -8 -4 -9 1 -4 15 18 56 13 93 -16 125 -25 27 -27 28 -22 9 3 -13 3
-23 1 -23 -5 0 -113 47 -163 70 -11 6 -47 17 -80 25 -90 23 -97 26 -91 40 2 7
-1 16 -9 18 -19 8 -27 -4 -13 -20 16 -20 1 -29 -19 -11 -19 17 -123 51 -131
43 -8 -7 -2 -10 48 -29 25 -9 34 -14 20 -11 -14 3 -77 10 -140 15 -63 6 -126
13 -140 16 -14 3 -32 6 -40 8 -8 2 -26 1 -40 -1z m50 -33 c0 -5 -9 -10 -20
-10 -11 0 -20 5 -20 10 0 6 9 10 20 10 11 0 20 -4 20 -10z m-185 -20 c3 -5 1
-10 -4 -10 -6 0 -11 5 -11 10 0 6 2 10 4 10 3 0 8 -4 11 -10z m635 -30 c0 -5
-7 -10 -16 -10 -8 0 -12 5 -9 10 3 6 10 10 16 10 5 0 9 -4 9 -10z m60 -73 c0
-6 -9 -2 -20 8 -11 10 -20 23 -20 28 0 6 9 2 20 -8 11 -10 20 -23 20 -28z
m157 6 c-3 -20 -38 -76 -43 -70 -7 6 19 72 30 79 15 11 16 10 13 -9z m-267
-27 c-6 -6 -15 -4 -25 4 -23 19 -18 29 9 17 15 -7 21 -16 16 -21z m-160 4 c0
-5 -2 -10 -4 -10 -3 0 -8 5 -11 10 -3 6 -1 10 4 10 6 0 11 -4 11 -10z m95 0
c-3 -5 -11 -10 -16 -10 -6 0 -7 5 -4 10 3 6 11 10 16 10 6 0 7 -4 4 -10z m440
-18 c-8 -8 -25 10 -19 20 4 6 9 5 15 -3 4 -7 6 -15 4 -17z m-60 8 c3 -6 -1 -7
-9 -4 -18 7 -21 14 -7 14 6 0 13 -4 16 -10z m-1605 -84 c0 -3 -4 -8 -10 -11
-5 -3 -10 -1 -10 4 0 6 5 11 10 11 6 0 10 -2 10 -4z m1577 -78 c-2 -13 -4 -5
-4 17 -1 22 1 32 4 23 2 -10 2 -28 0 -40z m-812 -89 c15 -15 -10 -11 -41 7
l-29 16 30 -7 c17 -3 34 -11 40 -16z m1069 -197 c3 -5 -1 -9 -9 -9 -8 0 -15 4
-15 9 0 4 4 8 9 8 6 0 12 -4 15 -8z m180 -24 c-3 -5 0 -16 7 -24 10 -12 9 -13
-5 -8 -15 6 -20 17 -13 29 1 2 -7 11 -18 20 -19 14 -19 15 7 4 15 -7 25 -16
22 -21z m-564 12 c0 -5 -7 -10 -16 -10 -8 0 -12 5 -9 10 3 6 10 10 16 10 5 0
9 -4 9 -10z m-228 -72 c-6 -6 -15 -8 -19 -4 -4 4 -1 11 7 16 19 12 27 3 12
-12z m678 7 c11 -13 10 -14 -4 -9 -9 3 -16 10 -16 15 0 13 6 11 20 -6z m63 1
c25 -19 21 -26 -8 -13 -14 7 -25 15 -25 20 0 11 13 8 33 -7z m-246 -18 c-3 -8
-6 -5 -6 6 -1 11 2 17 5 13 3 -3 4 -12 1 -19z m-632 -38 c-3 -5 -11 -10 -16
-10 -6 0 -7 5 -4 10 3 6 11 10 16 10 6 0 7 -4 4 -10z m635 -42 c0 -6 -6 -5
-15 2 -8 7 -15 14 -15 16 0 2 7 1 15 -2 8 -4 15 -11 15 -16z m-274 -46 c-4 -3
-14 2 -24 12 -16 18 -16 18 6 6 13 -6 21 -14 18 -18z m-526 -107 c0 -5 -5 -3
-10 5 -5 8 -10 20 -10 25 0 6 5 3 10 -5 5 -8 10 -19 10 -25z m418 4 c13 -16
20 -29 15 -29 -5 0 -19 14 -31 30 -29 39 -14 38 16 -1z m-442 -61 c-2 -11 1
-18 10 -18 8 0 14 -4 14 -9 0 -5 -15 -9 -32 -8 -18 0 -39 -1 -47 -4 -28 -9
-20 17 9 28 32 12 41 33 14 33 -8 0 -12 4 -9 10 10 16 46 -13 41 -32z m-211
-48 c3 -5 1 -10 -4 -10 -6 0 -11 5 -11 10 0 6 2 10 4 10 3 0 8 -4 11 -10z
m-687 -32 c45 -6 82 -15 82 -20 0 -5 16 -6 35 -2 20 3 49 7 64 8 16 1 36 8 45
15 15 13 21 12 46 -2 18 -11 31 -14 35 -7 10 17 35 11 35 -8 0 -10 7 -28 16
-40 18 -27 39 -20 24 8 -14 26 -13 43 3 33 6 -4 30 -9 51 -10 22 -2 42 -7 46
-13 3 -5 16 -7 28 -3 19 5 20 8 10 21 -11 13 -10 15 4 9 10 -3 20 -2 23 3 4 6
17 10 30 10 19 0 22 -4 18 -21 -6 -21 -5 -21 19 -5 14 9 40 21 58 26 28 8 33
7 37 -10 3 -11 10 -20 15 -20 5 0 6 -5 2 -11 -4 -8 -11 -6 -21 4 -8 8 -25 12
-39 9 -39 -7 -28 -28 12 -23 7 1 24 -3 38 -9 20 -7 26 -16 26 -40 0 -24 4 -30
22 -30 20 0 21 1 3 20 -14 16 -15 22 -5 35 11 13 15 12 35 -3 22 -15 22 -18 8
-29 -17 -13 -19 -12 31 -27 10 -3 13 0 9 10 -6 17 10 18 38 3 11 -5 17 -14 14
-20 -4 -5 -2 -9 3 -9 12 0 122 -106 122 -118 0 -6 13 -13 29 -17 16 -3 39 -15
52 -26 12 -10 28 -19 34 -19 7 0 15 -9 18 -20 3 -12 14 -20 26 -20 11 0 24 -8
30 -17 5 -10 13 -15 16 -11 4 4 16 -2 28 -13 11 -10 29 -19 40 -19 10 0 21 -9
24 -20 3 -11 11 -20 19 -20 8 0 11 -6 8 -15 -4 -9 0 -15 9 -15 8 0 17 6 20 13
2 6 8 9 12 5 4 -4 0 -19 -9 -32 -8 -14 -12 -27 -7 -30 5 -3 11 1 15 9 7 20 25
19 33 -2 4 -10 20 -28 35 -41 15 -13 28 -32 28 -42 0 -10 5 -22 11 -25 6 -4 8
-14 4 -23 -4 -10 2 -22 14 -32 16 -12 20 -30 24 -99 3 -52 9 -86 17 -91 7 -4
9 -13 5 -19 -4 -7 0 -23 9 -36 9 -13 16 -31 16 -40 0 -9 7 -18 16 -22 11 -4
13 -13 9 -33 -3 -16 -1 -31 4 -35 6 -3 11 -17 11 -31 0 -14 4 -23 9 -20 5 4
13 -8 17 -26 10 -47 7 -523 -6 -708 -5 -85 -15 -243 -20 -350 -6 -107 -12
-204 -14 -215 -2 -11 -7 -54 -11 -95 -4 -41 -11 -93 -17 -114 -5 -22 -13 -60
-18 -85 -25 -139 -108 -368 -110 -300 0 14 5 30 12 37 8 8 8 12 1 12 -6 0 -15
-6 -21 -12 -14 -18 -20 -97 -7 -102 16 -7 -15 -24 -34 -19 -15 4 -17 -1 -13
-26 4 -29 -12 -45 -20 -19 -2 6 -4 -8 -4 -30 1 -32 4 -41 15 -37 11 4 12 3 1
-10 -7 -8 -16 -12 -21 -9 -5 2 -11 -7 -15 -22 -4 -15 -18 -43 -31 -62 -25 -38
-29 -62 -11 -80 8 -8 4 -22 -18 -54 -16 -24 -29 -47 -30 -53 -1 -14 -42 -106
-54 -125 -6 -8 -13 -23 -16 -32 -4 -10 -11 -18 -18 -18 -6 0 -11 -14 -12 -30
-1 -17 -9 -38 -18 -48 -9 -10 -16 -25 -16 -33 0 -8 -13 -28 -29 -44 -15 -17
-34 -43 -42 -57 -27 -50 -98 -124 -133 -138 -20 -7 -36 -17 -36 -22 0 -4 -7
-8 -15 -8 -8 0 -15 -4 -15 -10 0 -5 -6 -10 -13 -10 -8 0 -24 -11 -37 -25 -13
-14 -32 -25 -42 -25 -26 0 -100 -39 -94 -49 3 -4 -6 -6 -19 -3 -15 2 -25 0
-25 -7 0 -6 -7 -11 -15 -11 -8 0 -15 -7 -15 -15 0 -11 -11 -15 -38 -15 -25 0
-50 -9 -72 -25 -19 -14 -39 -25 -45 -25 -6 0 -28 -8 -48 -18 -24 -12 -59 -17
-107 -17 -72 0 -79 -2 -58 -23 9 -9 9 -15 0 -24 -9 -9 -12 -9 -12 0 0 8 -21
12 -65 12 -67 0 -90 -16 -32 -22 17 -3 1 -4 -36 -4 -56 1 -70 -2 -78 -17 -7
-11 -17 -16 -29 -12 -10 3 -25 -1 -33 -9 -8 -8 -36 -17 -63 -20 -27 -3 -80
-12 -119 -20 -38 -9 -82 -16 -97 -16 -14 0 -28 -5 -30 -12 -3 -7 -31 -13 -74
-14 -38 -2 -79 -6 -92 -10 -19 -5 -21 -3 -16 12 5 17 4 17 -8 3 -16 -20 -108
-25 -108 -6 0 9 -2 9 -8 0 -9 -14 -142 -14 -142 -1 0 4 -8 8 -17 8 -33 0 -139
57 -184 99 -29 27 -50 39 -61 35 -10 -3 -18 -1 -18 5 0 6 5 11 11 11 5 0 8 4
4 10 -3 5 -12 7 -20 3 -8 -3 -15 0 -15 6 0 24 -29 9 -33 -16 -4 -26 -4 -26 -6
5 0 20 -6 32 -15 32 -10 0 -13 9 -11 30 2 16 0 32 -5 35 -6 3 -7 -1 -4 -9 7
-19 -7 -21 -24 -4 -8 8 -8 17 -1 31 8 13 8 22 0 30 -8 8 -11 6 -11 -6 0 -9 -2
-17 -4 -17 -2 0 -11 -3 -20 -6 -21 -8 -20 10 0 31 13 12 14 19 5 28 -6 6 -11
21 -11 33 0 13 -5 26 -10 29 -21 13 -51 86 -45 108 4 15 3 18 -3 9 -9 -13 -13
8 -29 138 -7 61 -7 62 3 170 17 178 10 246 -52 525 -66 300 -81 685 -34 914
40 196 131 525 152 546 6 7 7 0 2 -20 -7 -27 -6 -29 9 -16 10 7 17 20 17 27 0
8 6 11 15 8 11 -5 13 0 6 23 -7 24 -3 37 18 69 15 22 40 52 54 66 15 15 27 31
27 36 0 6 20 19 45 31 25 12 45 28 45 36 0 19 43 20 59 1 9 -10 8 -15 -4 -20
-22 -8 -19 -26 5 -26 11 0 20 -4 20 -10 0 -5 11 -20 25 -34 29 -30 31 -43 8
-49 -14 -4 -13 -5 4 -6 12 0 26 5 30 12 8 13 83 31 83 20 0 -3 -11 -14 -25
-25 -25 -20 -36 -46 -13 -31 18 11 152 3 159 -9 4 -6 11 -8 16 -5 10 6 61 -7
95 -24 10 -5 29 -9 43 -9 13 0 50 -12 82 -26 32 -14 68 -26 81 -26 12 0 22 -5
22 -11 0 -14 46 30 48 46 0 6 4 37 8 67 6 55 -4 93 -38 144 -20 29 -131 136
-141 136 -5 0 -17 8 -26 19 -9 10 -26 21 -38 25 -13 4 -23 12 -23 17 0 5 -6 9
-14 9 -7 0 -39 12 -70 26 -31 14 -89 30 -129 36 -39 5 -74 14 -75 19 -2 5 -19
7 -38 3 -25 -5 -34 -3 -34 8 0 7 -9 20 -20 28 -16 12 -19 23 -15 73 3 32 8 63
11 69 4 6 23 8 46 4 41 -7 88 -39 162 -111 47 -47 169 -135 186 -135 18 0 70
-43 70 -58 0 -8 6 -12 15 -8 9 3 21 -4 30 -18 8 -13 26 -28 40 -34 15 -7 22
-17 19 -26 -4 -10 5 -15 33 -18 41 -6 55 -1 36 10 -8 5 -9 13 -3 22 16 24 11
38 -12 42 -17 2 -23 9 -22 26 0 12 -4 22 -9 22 -5 0 -4 7 3 15 16 19 5 49 -25
65 -14 7 -25 22 -25 32 0 10 -7 18 -15 18 -8 0 -15 5 -15 10 0 6 -6 10 -13 10
-7 0 -32 16 -54 35 -23 19 -45 35 -51 35 -5 0 -35 25 -67 55 -31 30 -61 55
-66 55 -5 0 -23 15 -39 33 -16 19 -47 42 -69 52 -37 16 -43 17 -80 1 -23 -9
-41 -11 -41 -6 0 6 4 10 9 10 6 0 16 11 23 24 7 13 23 42 36 65 12 22 37 57
56 75 24 25 30 38 22 46 -8 8 -4 12 12 16 12 4 22 14 22 23 0 22 49 93 60 86
11 -7 24 13 28 45 4 32 22 51 22 25 1 -14 5 -11 14 11 9 19 24 34 39 38 15 3
27 15 31 31 4 14 17 35 31 47 19 16 22 25 15 39 -14 25 -13 28 9 22 14 -4 20
2 25 27 4 24 10 31 22 26 11 -4 19 3 27 24 6 16 17 30 24 30 6 0 24 16 39 35
15 19 37 38 51 41 13 4 28 15 34 25 5 11 18 19 29 19 11 0 24 8 29 19 11 20
47 20 199 -1z m815 8 c10 -8 14 -17 9 -20 -6 -3 -21 3 -33 14 -28 23 -5 28 24
6z m-313 -6 c0 -5 -4 -10 -10 -10 -5 0 -10 5 -10 10 0 6 5 10 10 10 6 0 10 -4
10 -10z m355 -70 c13 -6 15 -9 5 -9 -8 0 -22 4 -30 9 -18 12 -2 12 25 0z
m-2465 -460 c0 -14 -82 -102 -88 -95 -3 3 10 20 29 39 20 18 38 40 42 49 7 19
17 23 17 7z m30 -75 c-7 -9 -15 -13 -17 -11 -7 7 7 26 19 26 6 0 6 -6 -2 -15z
m-36 -70 c-15 -22 -31 -36 -21 -17 2 4 7 15 10 25 4 9 11 17 17 17 6 0 3 -11
-6 -25z m-79 -32 c-10 -15 -20 -37 -21 -48 -1 -11 -13 -53 -28 -92 -14 -40
-26 -78 -26 -86 0 -23 -32 -60 -40 -47 -4 7 -10 -2 -14 -24 -4 -20 -5 -40 -2
-45 3 -4 -14 -66 -38 -137 -103 -307 -100 -299 -107 -273 -6 20 -7 17 -8 -14
-1 -38 -23 -132 -41 -172 -5 -11 -12 -31 -16 -45 -4 -14 -16 -38 -27 -54 -12
-16 -16 -26 -9 -22 13 8 15 2 6 -31 -4 -13 -14 -23 -22 -23 -19 0 -77 -63 -62
-68 6 -2 3 -16 -6 -34 -17 -33 -12 -48 9 -27 7 8 14 16 15 19 9 43 31 90 42
90 5 0 -2 -26 -16 -57 -15 -32 -29 -66 -31 -76 -3 -10 -14 -34 -25 -55 -17
-31 -19 -33 -14 -9 4 15 2 27 -3 27 -5 0 -13 -21 -17 -47 -5 -27 -10 -40 -12
-29 -5 25 -32 -46 -32 -86 0 -15 -4 -29 -9 -33 -5 -3 -17 -28 -27 -57 -15 -46
-15 -52 -1 -63 14 -10 13 -15 -4 -51 -11 -21 -17 -31 -14 -21 5 19 -11 24 -18
5 -12 -30 -6 65 8 119 8 32 16 96 18 142 2 55 7 86 15 89 7 2 12 11 12 20 0
15 -2 15 -10 2 -5 -8 -10 -10 -10 -4 0 6 7 17 15 24 17 14 21 45 5 35 -13 -8
-13 -4 1 50 6 24 16 43 21 42 13 -3 20 36 8 43 -9 5 10 126 23 147 4 6 21 65
38 130 17 65 37 122 45 126 8 5 12 12 9 16 -2 5 5 27 16 50 12 25 17 51 14 64
-4 16 -4 18 3 8 7 -10 17 2 37 45 15 33 27 69 27 82 0 12 4 22 9 22 5 0 9 8 9
19 0 22 44 71 64 71 10 0 13 6 10 15 -4 8 -1 15 6 15 7 0 10 6 7 14 -3 8 1 20
9 27 9 7 34 46 56 86 22 40 44 73 49 73 13 0 12 -1 -20 -61 -15 -30 -36 -80
-46 -112 -10 -32 -25 -63 -34 -70 -18 -14 -41 -51 -41 -68 0 -6 -9 -22 -20
-36 -22 -28 -25 -43 -10 -43 6 0 10 5 10 11 0 6 9 18 20 27 12 10 22 28 24 42
1 14 14 38 29 54 15 16 27 34 27 40 0 6 11 34 25 61 13 28 25 55 25 61 0 6 7
17 15 24 9 7 14 19 11 27 -3 8 -1 11 4 8 14 -9 31 41 25 73 -4 22 -4 23 4 7 7
-16 10 -17 14 -5 3 8 5 22 4 31 0 17 44 80 52 73 2 -2 -4 -16 -14 -31z m-61 5
c-4 -7 -20 -29 -36 -49 -15 -20 -28 -40 -28 -43 0 -4 -8 -19 -19 -34 -10 -15
-26 -40 -35 -55 -10 -16 -20 -26 -23 -24 -3 3 10 30 29 59 19 29 43 67 53 83
18 30 55 75 62 75 2 0 1 -6 -3 -12z m3376 -288 c0 -5 -2 -10 -4 -10 -3 0 -8 5
-11 10 -3 6 -1 10 4 10 6 0 11 -4 11 -10z m-2291 -245 c76 -28 127 -55 165
-90 22 -19 43 -35 48 -35 15 0 30 -53 17 -60 -7 -5 -8 -10 -1 -14 5 -3 12 1
16 9 3 8 11 15 18 15 9 0 9 -3 2 -8 -20 -14 -22 -39 -4 -55 10 -8 21 -13 24
-10 3 4 6 -5 6 -20 0 -24 -4 -22 -62 37 -65 65 -132 111 -223 151 -29 12 -56
28 -59 34 -4 6 -22 11 -39 11 -18 0 -43 9 -57 20 -21 17 -23 21 -10 30 18 13
106 4 159 -15z m-44 -112 c55 -9 67 -23 45 -51 -29 -35 -35 -98 -14 -143 9
-22 15 -41 12 -44 -11 -11 -75 23 -111 60 -46 46 -60 85 -51 137 6 42 28 61
59 53 11 -3 38 -8 60 -12z m2525 -67 c0 -25 5 -48 10 -51 15 -9 12 -52 -5 -85
-14 -27 -14 -29 1 -23 15 6 16 -1 12 -58 -3 -35 -10 -73 -14 -84 -7 -18 -6
-18 9 -6 16 12 17 8 17 -55 0 -38 -5 -76 -10 -84 -8 -13 -10 -13 -10 -1 0 10
-3 12 -10 5 -6 -6 -6 -21 -1 -40 10 -35 9 -180 -2 -190 -4 -4 -7 -13 -7 -21 0
-17 27 -17 33 0 7 16 0 -90 -9 -131 -9 -45 -20 -48 -34 -9 -17 45 -26 372 -11
390 12 16 25 160 13 153 -5 -3 -9 12 -9 32 -1 20 4 40 10 44 9 5 9 8 1 8 -6 0
-11 17 -11 40 0 28 4 40 14 40 11 0 13 9 9 38 -16 112 -17 132 -7 132 6 0 11
-20 11 -44z m-2354 -27 c10 -17 -13 -36 -27 -22 -12 12 -4 33 11 33 5 0 12 -5
16 -11z m-346 -79 c0 -5 -4 -10 -10 -10 -5 0 -10 5 -10 10 0 6 5 10 10 10 6 0
10 -4 10 -10z m558 -69 c14 -46 15 -81 3 -81 -4 0 -11 19 -14 43 -2 23 -8 50
-12 60 -4 9 -3 17 2 17 6 0 15 -17 21 -39z m-45 -10 c3 -15 -2 -20 -22 -24
-39 -8 -51 10 -21 33 27 21 35 19 43 -9z m2250 -18 c4 -19 2 -33 -3 -33 -6 0
-10 17 -10 37 0 43 5 41 13 -4z m-3822 -180 c-7 -44 -25 -96 -51 -146 -22 -44
-40 -76 -40 -73 0 4 20 66 45 139 25 73 45 142 46 153 0 10 3 13 6 7 2 -7 0
-43 -6 -80z m3826 25 c-3 -7 -5 -2 -5 12 0 14 2 19 5 13 2 -7 2 -19 0 -25z
m-3876 -5 c-12 -20 -14 -14 -5 12 4 9 9 14 11 11 3 -2 0 -13 -6 -23z m-14 -45
c-3 -8 -6 -5 -6 6 -1 11 2 17 5 13 3 -3 4 -12 1 -19z m3850 -80 c-3 -8 -6 -5
-6 6 -1 11 2 17 5 13 3 -3 4 -12 1 -19z m-3881 -34 c-11 -30 -15 -33 -15 -16
-1 24 17 67 25 59 2 -2 -2 -21 -10 -43z m-52 -153 c-15 -58 -24 -76 -24 -46 0
20 31 108 36 103 1 -2 -4 -27 -12 -57z m-49 -1 c-4 -12 -9 -19 -12 -17 -3 3
-2 15 2 27 4 12 9 19 12 17 3 -3 2 -15 -2 -27z m-55 -24 c0 -3 -4 -8 -10 -11
-5 -3 -10 -1 -10 4 0 6 5 11 10 11 6 0 10 -2 10 -4z m10 -141 c-16 -43 -23
-22 -8 27 9 29 14 37 16 22 2 -11 -2 -33 -8 -49z m3960 -60 c0 -24 -5 -56 -11
-72 -7 -19 -7 -29 0 -31 15 -5 14 -42 -1 -42 -13 0 -15 36 -10 153 3 60 22 53
22 -8z m-3986 -12 c-4 -21 -21 -67 -38 -103 -17 -36 -36 -78 -42 -94 -6 -16
-14 -25 -17 -19 -4 5 7 37 23 69 16 32 30 64 30 70 0 14 41 114 47 114 2 0 1
-17 -3 -37z m3948 -219 c-3 -15 -8 -22 -14 -16 -9 9 -1 42 12 42 4 0 5 -12 2
-26z m-15 -146 c-3 -8 -6 -5 -6 6 -1 11 2 17 5 13 3 -3 4 -12 1 -19z m-4383
-203 c-10 -8 -27 -15 -37 -15 -15 0 -13 4 9 25 19 17 31 22 38 15 7 -7 4 -15
-10 -25z m-154 -345 c0 -5 -7 -10 -16 -10 -8 0 -12 5 -9 10 3 6 10 10 16 10 5
0 9 -4 9 -10z m-80 -13 c0 -2 -12 -14 -27 -28 -24 -22 -24 -13 0 19 8 11 27
17 27 9z m50 -12 c0 -2 -10 -10 -22 -16 -21 -11 -22 -11 -9 4 13 16 31 23 31
12z m-90 -110 c-7 -8 -17 -15 -22 -15 -6 0 -5 7 2 15 7 8 17 15 22 15 6 0 5
-7 -2 -15z m-155 -165 c-3 -5 -12 -10 -18 -10 -7 0 -6 4 3 10 19 12 23 12 15
0z m-115 -119 c0 -5 -7 -12 -16 -15 -24 -9 -28 -7 -14 9 14 17 30 20 30 6z
m1851 -392 c-5 -13 -10 -19 -10 -12 -1 15 10 45 15 40 3 -2 0 -15 -5 -28z m49
-40 c0 -6 -4 -7 -10 -4 -5 3 -10 11 -10 16 0 6 5 7 10 4 6 -3 10 -11 10 -16z
m-30 -9 c0 -5 7 -10 15 -10 11 0 15 -12 15 -44 0 -25 -4 -48 -10 -51 -5 -3
-10 -15 -10 -26 0 -12 -4 -17 -11 -14 -7 5 -5 14 4 28 17 26 11 84 -11 110 -9
11 -11 17 -4 17 7 0 12 -4 12 -10z m-2230 -20 c0 -5 -5 -10 -11 -10 -5 0 -7 5
-4 10 3 6 8 10 11 10 2 0 4 -4 4 -10z m2359 -149 c19 -16 19 -20 6 -31 -18
-15 -21 -13 -30 23 -8 32 -5 33 24 8z m-2491 -46 c0 -13 -7 -30 -14 -36 -11
-9 -11 -15 -3 -25 16 -20 -6 -18 -25 2 -9 8 -16 22 -16 30 0 8 -5 14 -11 14
-10 0 -3 -40 10 -50 3 -3 12 -13 20 -23 13 -17 12 -18 -15 -11 -26 7 -28 6
-16 -9 18 -21 6 -43 -14 -26 -12 9 -14 5 -14 -29 0 -33 -3 -40 -15 -36 -8 4
-12 11 -9 16 4 6 -2 8 -11 6 -24 -4 -32 -28 -10 -28 9 0 13 -5 10 -10 -5 -8
-12 -7 -22 2 -11 9 -13 23 -9 50 6 38 -8 55 -17 21 -3 -10 -5 -4 -6 13 -1 34
15 55 35 47 9 -3 14 1 14 11 0 22 62 86 84 86 11 0 14 -4 10 -12 -5 -7 3 -5
16 4 14 9 26 17 26 17 1 1 2 -10 2 -24z m52 21 c0 -2 -7 -7 -16 -10 -8 -3 -12
-2 -9 4 6 10 25 14 25 6z m2390 -55 c0 -22 6 -42 13 -45 6 -3 3 -5 -8 -3 -16
2 -21 11 -23 45 -2 25 1 42 7 42 6 0 11 -18 11 -39z m70 -7 c0 -8 3 -14 8 -14
4 0 8 -11 8 -25 2 -34 11 -55 24 -55 5 0 10 7 10 15 0 8 5 15 11 15 5 0 7 -5
3 -12 -4 -6 -7 -26 -6 -45 1 -20 -3 -31 -8 -28 -6 3 -10 -1 -10 -9 0 -9 5 -16
11 -16 6 0 8 -9 4 -20 -5 -15 -3 -18 8 -14 10 4 16 -4 19 -25 3 -17 1 -31 -4
-31 -5 0 -6 -10 -3 -23 4 -13 8 -30 9 -38 2 -8 6 -21 9 -29 4 -8 6 -50 4 -93
-1 -42 0 -77 2 -77 3 0 13 7 23 17 22 19 25 68 4 60 -10 -4 -12 0 -9 14 3 10
9 19 14 19 5 0 9 15 9 33 -1 17 2 49 6 70 6 35 5 37 -17 35 -13 -2 -28 -7 -32
-13 -5 -6 -6 1 -3 15 3 14 6 35 6 48 0 13 6 22 16 22 12 0 14 -7 9 -31 -5 -22
-4 -29 4 -25 22 14 41 -22 46 -88 3 -37 1 -68 -5 -71 -16 -10 -12 -28 5 -21 9
3 15 0 15 -9 0 -8 -4 -15 -10 -15 -5 0 -10 -8 -10 -17 0 -14 2 -15 9 -5 5 9
10 -3 15 -34 4 -32 2 -50 -5 -55 -8 -4 -4 -11 10 -18 20 -11 30 -41 13 -41 -7
0 -18 -22 -62 -125 -17 -40 -21 -65 -11 -65 6 0 11 -14 11 -31 0 -21 -9 -39
-32 -60 -35 -31 -48 -36 -48 -16 0 9 -2 9 -9 -1 -5 -8 -21 -12 -37 -10 -25 3
-29 7 -26 31 1 15 -2 27 -8 27 -5 0 -10 -13 -10 -30 0 -16 5 -30 11 -30 8 0 8
-4 -1 -15 -6 -8 -9 -19 -5 -24 3 -6 0 -8 -9 -5 -8 3 -17 17 -21 31 -4 16 -11
23 -20 19 -11 -4 -15 2 -15 22 0 16 -7 37 -15 48 -8 10 -15 38 -15 62 0 23 -3
42 -8 42 -4 0 -6 -18 -4 -40 5 -50 -12 -53 -29 -5 -9 23 -18 34 -27 30 -7 -3
-18 -5 -23 -5 -5 0 -9 -4 -9 -10 0 -5 6 -10 14 -10 18 0 40 -54 34 -85 -5 -21
-2 -25 13 -20 21 7 23 2 9 -24 -7 -13 -2 -27 17 -56 19 -28 22 -37 9 -32 -9 4
-16 3 -16 -1 0 -4 -9 -18 -20 -32 -15 -18 -18 -20 -13 -6 5 16 3 18 -12 13 -9
-4 -24 -2 -32 4 -14 12 -55 92 -59 118 -2 7 -7 18 -13 24 -6 6 -11 19 -11 29
0 10 -4 18 -10 18 -5 0 -10 11 -10 25 0 14 -5 25 -11 25 -8 0 -10 12 -6 35 6
37 3 42 -16 24 -9 -9 -10 -25 -3 -65 6 -30 14 -54 18 -54 4 0 8 -5 8 -10 0 -6
16 -44 36 -85 20 -41 32 -80 28 -86 -4 -7 -3 -9 4 -5 13 8 36 -30 27 -44 -3
-6 0 -10 8 -10 8 0 17 -7 21 -15 8 -21 -3 -45 -20 -45 -30 0 1 -54 34 -57 26
-3 30 12 5 21 -15 6 -15 8 -3 16 11 7 19 -1 34 -33 11 -23 19 -50 17 -61 -2
-13 1 -16 11 -11 10 6 11 5 1 -6 -7 -7 -13 -21 -13 -32 0 -27 -20 -43 -63 -51
-30 -6 -37 -4 -37 8 0 9 -11 18 -25 22 -32 8 -40 1 -22 -17 19 -20 28 -49 16
-49 -6 0 -20 12 -31 26 -15 18 -23 22 -28 14 -4 -7 1 -21 13 -33 l21 -21 -23
-9 c-31 -15 -45 3 -37 47 4 20 11 36 16 36 6 0 10 5 10 10 0 19 -16 10 -32
-18 -22 -37 -65 -82 -78 -82 -17 0 -12 15 15 44 14 15 25 31 25 37 0 5 3 9 8
9 4 0 13 14 21 32 8 17 22 39 32 49 12 12 16 25 12 36 -6 15 -8 14 -13 -7 -3
-16 -12 -25 -25 -25 -14 0 -21 -10 -27 -40 -8 -37 -21 -54 -43 -55 -6 0 -9 48
-7 130 2 71 0 130 -3 130 -4 0 -13 -7 -22 -15 -19 -19 -33 -11 -33 21 0 24 34
48 53 37 11 -7 8 15 -3 22 -8 5 -7 11 1 21 19 24 2 27 -20 5 -22 -22 -41 -27
-41 -11 0 6 4 10 8 10 5 0 14 11 20 24 10 22 8 26 -9 31 -20 7 -20 7 -2 27 10
12 13 23 8 25 -6 2 -9 20 -7 42 3 32 0 39 -17 44 -12 3 -21 12 -21 21 0 9 6
13 14 10 11 -4 12 3 4 43 -6 26 -15 54 -20 61 -6 7 -6 12 -1 12 16 0 33 -24
33 -47 0 -13 5 -23 10 -23 6 0 10 5 10 11 0 5 5 7 10 4 6 -3 10 -11 10 -16 0
-6 -4 -7 -10 -4 -15 9 -12 -39 5 -76 12 -26 15 -28 11 -9 -2 14 -8 36 -12 50
-5 21 -4 23 7 13 18 -17 29 -16 29 2 0 8 -4 15 -10 15 -5 0 -10 9 -10 20 0 11
-6 20 -14 20 -16 0 -31 31 -18 39 16 11 23 44 10 52 -9 6 -6 14 12 34 27 29
31 26 50 -33 8 -26 17 -39 23 -33 6 6 5 22 -1 43 -16 54 -22 98 -13 98 5 0 12
-6 14 -12 3 -7 6 4 6 25 1 20 6 37 11 37 6 0 17 18 26 41 11 25 21 38 30 35 8
-3 11 0 7 11 -3 8 0 19 8 24 12 8 12 11 -1 19 -9 6 -11 13 -5 18 6 4 16 19 24
35 15 29 39 35 59 15 9 -9 12 -8 12 5 0 9 -7 17 -15 17 -8 0 -15 5 -15 11 0 6
12 9 28 7 l27 -3 -3 65 c-4 76 17 136 37 103 6 -11 11 -13 11 -5 0 10 4 10 16
-2 8 -9 22 -16 30 -16 8 0 14 -4 14 -10 0 -20 18 -9 24 15 4 14 11 25 16 25
16 0 12 -38 -5 -52 -9 -7 -21 -18 -28 -24 -7 -6 -18 -9 -25 -6 -14 4 -52 -30
-52 -48 0 -15 8 -13 40 10 15 11 30 17 33 14 3 -4 14 1 23 10 9 9 29 20 45 23
30 6 40 23 15 23 -18 0 -30 33 -21 59 3 12 0 21 -10 25 -8 3 -15 17 -15 32 0
22 2 25 15 14 8 -7 15 -19 15 -26z m80 -18 c0 -2 -7 -9 -15 -16 -13 -11 -14
-10 -9 4 5 14 24 23 24 12z m-330 -56 c0 -5 -2 -10 -4 -10 -3 0 -8 5 -11 10
-3 6 -1 10 4 10 6 0 11 -4 11 -10z m3440 4 c0 -3 -7 -12 -15 -20 -12 -13 -15
-13 -15 -1 0 7 3 17 7 20 8 8 23 9 23 1z m-3080 -60 c0 -8 -4 -14 -10 -14 -5
0 -10 9 -10 21 0 11 5 17 10 14 6 -3 10 -13 10 -21z m-450 1 c0 -8 -4 -15 -10
-15 -5 0 -7 7 -4 15 4 8 8 15 10 15 2 0 4 -7 4 -15z m77 -6 c-3 -12 0 -30 6
-41 9 -16 9 -22 0 -25 -7 -3 -13 -9 -13 -15 0 -21 -43 -97 -52 -92 -5 4 -8 -4
-6 -17 2 -17 -3 -25 -16 -27 -17 -4 -18 1 -14 35 4 31 2 42 -12 50 -14 10 -16
8 -12 -13 3 -17 0 -24 -12 -24 -9 0 -16 -4 -16 -10 0 -5 4 -10 10 -10 6 0 5
-10 -2 -25 -11 -25 -19 -30 -31 -18 -4 3 1 12 10 18 14 11 15 16 5 28 -10 12
-10 18 3 30 8 9 12 23 9 31 -6 17 11 46 27 46 5 0 9 -9 9 -20 0 -11 5 -20 11
-20 6 0 13 9 16 20 7 25 20 26 27 3 2 -10 4 -6 3 8 -2 28 21 79 35 79 4 0 8 7
8 15 0 8 3 15 6 15 4 0 4 -10 1 -21z m394 -12 c-10 -9 -11 -8 -5 6 3 10 9 15
12 12 3 -3 0 -11 -7 -18z m-501 -27 c0 -5 -7 -10 -16 -10 -8 0 -12 5 -9 10 3
6 10 10 16 10 5 0 9 -4 9 -10z m517 -12 c-3 -8 -6 -5 -6 6 -1 11 2 17 5 13 3
-3 4 -12 1 -19z m-352 -8 c3 -5 1 -10 -4 -10 -6 0 -11 5 -11 10 0 6 2 10 4 10
3 0 8 -4 11 -10z m369 -46 c3 -8 2 -12 -4 -9 -6 3 -10 10 -10 16 0 14 7 11 14
-7z m-45 -95 c-13 -26 -19 -24 -19 6 0 17 4 23 15 19 11 -5 12 -11 4 -25z
m-485 -51 c5 4 -2 -10 -14 -31 -13 -22 -19 -44 -15 -55 5 -15 4 -15 -9 -2 -13
12 -13 23 -4 58 8 31 14 40 23 32 6 -5 15 -6 19 -2z m-44 -8 c0 -5 -4 -10 -10
-10 -5 0 -10 5 -10 10 0 6 5 10 10 10 6 0 10 -4 10 -10z m-37 -40 c3 -11 1
-20 -4 -20 -5 0 -9 9 -9 20 0 11 2 20 4 20 2 0 6 -9 9 -20z m3445 -32 c14 -14
16 -28 2 -28 -5 0 -14 9 -20 20 -12 22 -1 27 18 8z m-3435 -22 c15 -23 13 -36
-5 -36 -4 0 -7 3 -7 8 4 22 -3 34 -16 29 -8 -4 -17 -2 -20 3 -5 7 8 17 26 19
4 1 14 -10 22 -23z m677 -51 c0 -5 -5 -3 -10 5 -5 8 -10 20 -10 25 0 6 5 3 10
-5 5 -8 10 -19 10 -25z m-765 -75 c3 -5 1 -10 -4 -10 -6 0 -11 5 -11 10 0 6 2
10 4 10 3 0 8 -4 11 -10z m730 -133 c-7 -23 -15 -51 -18 -62 -4 -11 -5 1 -3
27 3 40 18 78 31 78 2 0 -3 -19 -10 -43z m-725 -17 c0 -5 -2 -10 -4 -10 -3 0
-8 5 -11 10 -3 6 -1 10 4 10 6 0 11 -4 11 -10z m2951 -97 c-12 -20 -14 -14 -5
12 4 9 9 14 11 11 3 -2 0 -13 -6 -23z m39 -18 c0 -8 -4 -15 -10 -15 -5 0 -7 7
-4 15 4 8 8 15 10 15 2 0 4 -7 4 -15z m-2570 -15 c0 -5 -5 -10 -11 -10 -5 0
-7 5 -4 10 3 6 8 10 11 10 2 0 4 -4 4 -10z m-424 -74 c8 -8 11 -17 6 -20 -4
-2 -13 4 -20 15 -14 22 -7 25 14 5z m544 -31 c0 -5 -5 -3 -10 5 -5 8 -10 20
-10 25 0 6 5 3 10 -5 5 -8 10 -19 10 -25z m-120 -42 c-8 -3 -22 -11 -30 -17
-13 -10 -13 -9 -1 7 7 9 21 17 30 16 13 0 14 -1 1 -6z m650 -13 c0 -5 -2 -10
-4 -10 -3 0 -8 5 -11 10 -3 6 -1 10 4 10 6 0 11 -4 11 -10z m-681 -105 c0 -5
-6 -1 -14 9 -8 11 -15 24 -15 30 0 5 7 1 15 -10 8 -10 14 -23 14 -29z m881 31
c0 -3 -4 -8 -10 -11 -5 -3 -10 -1 -10 4 0 6 5 11 10 11 6 0 10 -2 10 -4z
m-110 -26 c0 -5 -7 -10 -16 -10 -8 0 -12 5 -9 10 3 6 10 10 16 10 5 0 9 -4 9
-10z m-1095 -158 c-12 -12 -24 22 -13 35 6 7 8 26 5 42 -3 16 -3 32 1 36 4 4
8 -19 10 -50 2 -32 0 -60 -3 -63z m366 -135 c-8 -8 -11 -7 -11 4 0 20 13 34
18 19 3 -7 -1 -17 -7 -23z m-304 1 c-3 -8 -6 -5 -6 6 -1 11 2 17 5 13 3 -3 4
-12 1 -19z m-57 -7 c0 -13 -26 -32 -33 -24 -8 7 11 33 24 33 5 0 9 -4 9 -9z
m-56 -46 c-4 -8 -8 -15 -10 -15 -2 0 -4 7 -4 15 0 8 4 15 10 15 5 0 7 -7 4
-15z m296 -46 c16 -12 34 -35 41 -50 6 -16 15 -29 20 -29 5 0 9 -7 9 -15 0
-21 -19 -19 -38 5 -24 28 -111 35 -158 13 -35 -17 -63 -59 -65 -97 -1 -16 -3
-15 -9 7 -10 31 -3 60 11 51 5 -3 9 0 9 5 0 6 -6 11 -12 11 -8 1 -6 6 4 14 10
7 15 16 11 19 -9 10 18 38 36 36 9 -1 18 0 21 0 22 8 77 7 90 -2 11 -6 25 -7
36 -2 16 8 14 10 -13 13 -18 2 -33 8 -33 13 0 6 -12 8 -30 4 -38 -8 -65 6 -30
16 45 13 70 9 100 -12z m-340 -14 c-7 -8 -17 -15 -22 -15 -6 0 -5 7 2 15 7 8
17 15 22 15 6 0 5 -7 -2 -15z m-50 -50 c-7 -8 -17 -15 -22 -15 -6 0 -5 7 2 15
7 8 17 15 22 15 6 0 5 -7 -2 -15z m-41 -57 c-8 -14 -14 -18 -17 -10 -4 13 17
46 25 38 3 -2 -1 -15 -8 -28z m371 14 c8 2 16 -5 18 -14 4 -22 -11 -23 -32 -2
-9 8 -20 12 -26 9 -5 -3 -10 -2 -10 4 0 13 24 20 31 9 3 -5 12 -8 19 -6z m-85
-163 c11 -17 -1 -21 -15 -4 -8 9 -8 15 -2 15 6 0 14 -5 17 -11z m-128 -21 c-3
-8 -6 -5 -6 6 -1 11 2 17 5 13 3 -3 4 -12 1 -19z m196 -29 c-8 -8 -16 -8 -30
1 -15 10 -15 11 -1 6 10 -3 20 -1 24 5 3 6 9 8 12 4 3 -3 1 -10 -5 -16z"/>
<path d="M5260 6474 c0 -3 7 -12 15 -20 13 -14 15 -13 15 5 0 12 -6 21 -15 21
-8 0 -15 -3 -15 -6z"/>
<path d="M5040 6461 c0 -8 41 -23 47 -17 2 1 -8 8 -22 14 -14 6 -25 8 -25 3z"/>
<path d="M6212 5330 c0 -14 2 -19 5 -12 2 6 2 18 0 25 -3 6 -5 1 -5 -13z"/>
<path d="M4248 5143 c6 -2 18 -2 25 0 6 3 1 5 -13 5 -14 0 -19 -2 -12 -5z"/>
<path d="M4966 5057 c-41 -26 -69 -59 -72 -82 -3 -25 9 -34 21 -15 9 15 34 0
28 -17 -5 -12 2 -14 33 -12 22 2 45 0 51 -4 24 -15 225 -25 261 -12 16 5 22 4
20 -5 -2 -8 17 -14 62 -17 36 -2 101 -13 145 -23 44 -10 101 -21 128 -25 26
-3 68 -8 93 -11 42 -5 45 -4 40 14 -9 26 6 35 36 23 12 -6 17 -10 10 -10 -7
-1 -10 -6 -6 -12 3 -6 0 -15 -7 -20 -11 -6 -8 -9 8 -9 12 0 26 -6 30 -13 12
-20 44 -29 59 -16 11 9 14 8 14 -4 0 -8 11 -22 25 -31 14 -9 23 -21 20 -26 -9
-14 9 -12 23 2 9 9 12 9 12 -3 0 -25 36 -60 54 -53 9 3 23 0 32 -7 9 -7 26
-18 38 -24 11 -6 21 -17 21 -25 0 -21 27 -23 50 -6 20 15 20 15 -2 16 -14 0
-23 6 -23 16 0 8 -16 22 -35 30 -20 8 -38 21 -42 29 -3 8 -14 15 -24 15 -10 0
-19 6 -19 13 0 7 -9 20 -20 30 -11 9 -20 14 -20 10 0 -3 -8 1 -17 9 -10 9 -28
19 -40 22 -13 4 -23 11 -23 16 0 4 -20 18 -45 30 -24 12 -67 41 -93 65 -27 25
-52 42 -54 39 -3 -2 -17 0 -30 5 -18 7 -29 6 -37 -2 -8 -8 -11 -8 -11 1 0 6
-9 16 -21 23 -17 9 -24 7 -40 -10 -17 -18 -23 -19 -39 -8 -11 6 -20 14 -20 17
0 3 -16 14 -35 24 -19 11 -35 23 -35 29 0 6 -5 6 -12 -1 -16 -12 -118 -22
-118 -11 0 5 -10 9 -22 9 -13 0 -48 4 -78 10 -155 30 -244 36 -274 17z m742
-130 c-18 -14 -13 -28 17 -45 17 -9 10 -11 -40 -12 -34 0 -65 4 -70 9 -6 5
-19 11 -30 14 -13 3 -9 5 13 6 17 0 32 5 32 10 0 4 10 6 23 4 14 -3 29 2 36
11 8 9 19 16 25 16 6 0 3 -6 -6 -13z m192 -117 c0 -5 -4 -10 -10 -10 -5 0 -10
5 -10 10 0 6 5 10 10 10 6 0 10 -4 10 -10z m165 -110 c3 -5 -1 -10 -10 -10 -9
0 -13 5 -10 10 3 6 8 10 10 10 2 0 7 -4 10 -10z"/>
<path d="M5550 5003 c0 -5 11 -8 24 -8 13 0 22 3 19 8 -2 4 -13 7 -24 7 -10 0
-19 -3 -19 -7z"/>
<path d="M4830 4980 c0 -5 5 -10 10 -10 6 0 10 5 10 10 0 6 -4 10 -10 10 -5 0
-10 -4 -10 -10z"/>
<path d="M3988 4803 c6 -2 18 -2 25 0 6 3 1 5 -13 5 -14 0 -19 -2 -12 -5z"/>
<path d="M3302 4775 c0 -16 2 -22 5 -12 2 9 2 23 0 30 -3 6 -5 -1 -5 -18z"/>
<path d="M4991 4772 c-25 -7 -57 -15 -70 -17 -14 -2 -28 -11 -33 -19 -5 -9
-19 -16 -32 -16 -42 0 -119 -50 -103 -67 4 -3 14 0 23 7 13 11 19 12 37 1 17
-11 22 -11 31 1 13 18 76 52 83 45 2 -3 20 5 39 18 41 28 135 41 216 30 59 -8
258 -84 300 -115 15 -11 31 -20 36 -20 5 0 20 -9 33 -21 13 -11 34 -29 47 -40
12 -10 27 -19 33 -19 6 0 9 -7 6 -14 -4 -10 -1 -13 8 -9 9 3 18 -4 25 -21 5
-14 16 -26 23 -26 8 0 19 -11 27 -24 7 -14 23 -27 36 -30 13 -4 24 -11 24 -16
0 -16 17 -11 24 7 8 20 -38 93 -59 93 -8 0 -15 4 -15 10 0 26 -296 210 -339
210 -5 0 -51 14 -101 31 -104 34 -222 43 -299 21z"/>
<path d="M3272 4660 c0 -14 2 -19 5 -12 2 6 2 18 0 25 -3 6 -5 1 -5 -13z"/>
<path d="M5010 4659 c-19 -4 -62 -12 -95 -19 -54 -10 -125 -45 -125 -61 0 -3
34 -23 75 -44 41 -20 75 -41 75 -46 0 -5 7 -9 15 -9 8 0 14 -3 13 -7 -2 -5 5
-19 16 -33 17 -24 18 -24 11 -3 -5 18 -3 22 10 17 11 -5 15 -14 11 -29 -5 -19
-1 -24 22 -28 15 -3 30 -1 33 5 4 6 18 4 37 -6 44 -23 49 -20 18 9 -15 14 -33
25 -40 25 -15 0 -106 93 -106 109 0 5 -6 16 -14 23 -12 12 -9 18 20 37 18 13
39 23 46 24 64 2 138 -5 152 -16 18 -13 18 -15 1 -40 -38 -58 -10 -187 47
-214 94 -45 150 -48 205 -11 24 16 50 42 58 58 18 34 20 35 60 11 44 -26 43
-46 -5 -65 -22 -9 -40 -21 -40 -27 0 -8 -4 -8 -12 -2 -8 6 -26 7 -46 1 -30 -8
-33 -12 -28 -34 7 -25 -10 -34 -30 -14 -12 12 -66 16 -82 6 -18 -11 -5 -25 19
-19 15 4 22 0 26 -16 6 -25 20 -27 44 -5 17 15 20 15 43 1 24 -16 50 -16 136
-1 19 4 40 11 47 16 7 5 25 9 40 7 15 -1 39 3 53 9 14 6 34 13 44 16 18 6 18
8 -7 34 -19 20 -24 34 -20 55 5 26 3 28 -19 22 -20 -5 -35 3 -79 43 -30 27
-69 57 -86 66 -18 9 -33 23 -33 30 0 8 -11 14 -26 14 -14 0 -35 9 -48 21 -12
11 -26 21 -32 21 -5 0 -31 11 -58 25 -27 14 -55 25 -63 25 -7 0 -13 8 -13 18
-1 16 -1 16 -11 0 -13 -22 -43 -23 -64 -2 -10 11 -20 13 -28 6 -10 -8 -93 -7
-122 1 -5 2 -26 0 -45 -4z m-92 -88 c3 -8 -1 -12 -9 -9 -7 2 -15 10 -17 17 -3
8 1 12 9 9 7 -2 15 -10 17 -17z m419 -37 c5 -15 -28 -27 -40 -15 -5 5 -6 14
-2 21 8 13 37 9 42 -6z m153 -239 c11 -13 8 -15 -19 -15 -30 0 -39 9 -24 23
11 11 30 8 43 -8z"/>
<path d="M6087 4616 c-4 -10 0 -12 14 -9 22 6 26 23 5 23 -8 0 -16 -6 -19 -14z"/>
<path d="M5097 4363 c-18 -17 -5 -33 28 -33 39 0 46 14 16 30 -23 12 -35 13
-44 3z"/>
<path d="M5183 4315 c-7 -19 -5 -20 25 -29 13 -5 22 -3 22 3 0 6 -4 11 -10 11
-5 0 -7 7 -4 15 4 10 0 15 -10 15 -9 0 -19 -7 -23 -15z"/>
<path d="M5255 4300 c-6 -9 11 -50 20 -50 2 0 9 8 14 18 7 14 5 21 -9 30 -12
7 -21 8 -25 2z"/>
<path d="M6152 3965 c0 -16 2 -22 5 -12 2 9 2 23 0 30 -3 6 -5 -1 -5 -18z"/>
<path d="M3970 3680 c0 -5 9 -10 19 -10 11 0 23 5 26 10 4 6 -5 10 -19 10 -14
0 -26 -4 -26 -10z"/>
<path d="M4170 3665 c0 -7 81 -47 86 -42 6 6 -60 47 -75 47 -6 0 -11 -2 -11
-5z"/>
<path d="M3345 3638 c-8 -20 2 -41 15 -33 5 3 14 -5 21 -17 7 -13 19 -28 27
-34 8 -6 12 -16 8 -22 -5 -8 0 -12 13 -12 20 0 28 -25 21 -70 -1 -8 3 -64 9
-125 6 -60 13 -132 15 -160 3 -27 7 -61 11 -75 l6 -25 -11 24 c-15 35 -23 18
-16 -34 8 -48 26 -62 26 -20 0 14 5 25 10 25 9 0 14 -22 13 -57 0 -6 6 -9 13
-6 8 3 14 0 14 -6 0 -6 11 -16 25 -21 22 -8 25 -15 25 -60 0 -28 4 -49 9 -46
5 3 7 15 4 26 -4 15 0 20 15 20 12 0 25 -6 29 -12 12 -19 50 -38 76 -38 12 0
32 -7 44 -15 31 -22 138 -31 159 -15 13 11 17 11 24 0 7 -11 15 -10 44 4 21
10 45 14 57 11 15 -5 22 -2 26 14 3 12 12 21 20 21 9 0 13 -6 10 -14 -4 -10 5
-15 30 -18 31 -4 36 -1 45 24 11 32 33 39 25 8 -7 -28 2 -31 64 -19 30 5 66
11 81 13 15 1 34 9 43 16 12 10 18 10 30 0 17 -14 35 -5 35 17 0 9 6 13 15 9
8 -3 26 -1 39 4 15 5 27 5 35 -3 8 -8 14 -6 24 8 10 12 16 14 21 7 4 -7 4 -16
1 -22 -3 -5 0 -10 9 -10 8 0 16 -6 18 -12 4 -10 10 -10 31 -1 16 8 29 9 32 3
4 -6 -3 -10 -14 -10 -28 0 -26 -11 4 -33 25 -18 25 -18 41 17 l17 35 -33 28
c-18 15 -38 28 -44 28 -12 1 -35 9 -83 31 -22 9 -41 11 -55 5 -66 -25 -285 29
-325 79 -6 8 -15 12 -18 8 -4 -4 -14 -1 -22 7 -8 8 -22 15 -31 15 -9 0 -28 16
-41 35 -19 28 -27 33 -38 24 -7 -7 -14 -10 -16 -8 -1 2 -7 13 -13 23 -6 11
-30 26 -55 34 -24 8 -59 21 -77 28 -18 8 -41 14 -52 14 -10 0 -22 9 -25 20 -3
11 -17 23 -29 26 -13 3 -29 16 -36 30 -8 13 -21 24 -31 24 -10 0 -21 5 -24 10
-3 6 -48 30 -99 54 -96 46 -126 75 -126 120 0 28 -56 99 -74 93 -6 -2 -16 3
-23 12 -10 15 -12 14 -18 -1z m535 -607 c0 -12 -26 -32 -33 -25 -6 7 14 33 26
34 4 0 7 -4 7 -9z m73 -28 c-42 -34 -63 -30 -47 11 4 11 17 15 41 13 l34 -2
-28 -22z m73 11 c16 -4 20 -11 16 -30 -2 -13 -7 -24 -10 -24 -12 0 -42 34 -42
47 0 14 5 15 36 7z m127 -55 c-7 -7 -12 -3 -15 16 -5 25 -4 25 10 11 12 -11
13 -19 5 -27z m-43 16 c0 -8 -9 -15 -20 -15 -11 0 -20 5 -20 11 0 5 4 8 9 4 5
-3 12 -1 16 5 9 14 15 12 15 -5z m93 -12 c-7 -2 -19 -2 -25 0 -7 3 -2 5 12 5
14 0 19 -2 13 -5z m50 -10 c-7 -2 -19 -2 -25 0 -7 3 -2 5 12 5 14 0 19 -2 13
-5z m92 -53 c-3 -5 -10 -10 -16 -10 -5 0 -9 5 -9 10 0 6 7 10 16 10 8 0 12 -4
9 -10z"/>
<path d="M4451 3626 c-16 -19 -11 -29 8 -17 7 5 12 14 9 21 -3 9 -8 7 -17 -4z"/>
<path d="M6062 3610 c0 -14 2 -19 5 -12 2 6 2 18 0 25 -3 6 -5 1 -5 -13z"/>
<path d="M5826 3084 c-9 -24 -7 -28 9 -14 17 14 20 30 6 30 -5 0 -12 -7 -15
-16z"/>
<path d="M5770 2980 c0 -5 5 -10 11 -10 5 0 7 5 4 10 -3 6 -8 10 -11 10 -2 0
-4 -4 -4 -10z"/>
<path d="M4360 2120 c0 -5 7 -10 15 -10 8 0 15 5 15 10 0 6 -7 10 -15 10 -8 0
-15 -4 -15 -10z"/>
<path d="M2796 5634 c-15 -14 -22 -44 -11 -44 2 0 11 14 20 30 17 33 14 38 -9
14z"/>
<path d="M2697 5553 c-4 -3 -7 -11 -7 -17 0 -6 5 -5 12 2 6 6 9 14 7 17 -3 3
-9 2 -12 -2z"/>
<path d="M2736 5484 c-4 -9 -4 -19 -1 -22 2 -3 7 3 11 12 4 9 4 19 1 22 -2 3
-7 -3 -11 -12z"/>
<path d="M2601 5314 c0 -11 3 -14 6 -6 3 7 2 16 -1 19 -3 4 -6 -2 -5 -13z"/>
<path d="M2565 5300 c-3 -6 -3 -19 0 -31 4 -11 0 -30 -7 -42 -22 -34 -49 -107
-40 -107 7 0 27 37 74 144 6 14 5 17 -8 12 -12 -4 -14 -1 -9 14 7 21 1 27 -10
10z"/>
<path d="M2658 5270 c-4 -45 7 -41 17 8 4 19 3 32 -3 32 -6 0 -12 -18 -14 -40z"/>
<path d="M2637 5196 c-4 -10 -7 -25 -6 -34 0 -11 4 -9 10 7 5 13 8 29 6 35 -2
5 -6 2 -10 -8z"/>
<path d="M2458 5050 c-3 -8 -18 -60 -34 -115 -15 -55 -32 -106 -37 -112 -6 -9
-5 -19 4 -30 12 -15 12 -16 -3 -10 -15 5 -18 1 -18 -23 0 -16 4 -31 9 -34 11
-7 3 -82 -11 -110 -7 -13 -6 -21 3 -27 11 -6 8 -14 -11 -34 -16 -17 -19 -24
-8 -20 11 4 18 0 21 -12 3 -11 3 -10 2 4 -1 12 3 24 8 26 6 2 12 18 13 35 1
18 7 39 13 46 9 10 8 15 -2 19 -11 4 -12 17 -5 64 20 131 30 181 49 240 11 34
19 73 16 85 -2 17 -5 19 -9 8z m-64 -305 c-4 -8 -8 -15 -10 -15 -2 0 -4 7 -4
15 0 8 4 15 10 15 5 0 7 -7 4 -15z"/>
<path d="M2560 4959 c0 -5 5 -7 10 -4 6 3 10 8 10 11 0 2 -4 4 -10 4 -5 0 -10
-5 -10 -11z"/>
<path d="M2510 4838 c-12 -22 -12 -22 6 -6 10 10 15 20 12 24 -4 3 -12 -5 -18
-18z"/>
<path d="M2468 4770 c-3 -19 -1 -29 6 -27 14 4 21 57 8 57 -5 0 -12 -14 -14
-30z"/>
<path d="M2290 4194 c0 -8 5 -12 10 -9 6 3 10 10 10 16 0 5 -4 9 -10 9 -5 0
-10 -7 -10 -16z"/>
<path d="M6390 4365 c0 -8 5 -15 10 -15 6 0 10 7 10 15 0 8 -4 15 -10 15 -5 0
-10 -7 -10 -15z"/>
<path d="M3393 2039 c-18 -18 -16 -30 2 -23 8 4 15 1 15 -5 0 -6 -6 -11 -12
-11 -10 0 -9 -3 1 -9 9 -6 10 -11 2 -15 -6 -4 -11 -4 -11 0 0 13 -29 -30 -30
-43 0 -8 13 -13 34 -13 19 0 37 -6 39 -12 3 -7 6 -3 6 9 1 12 -4 25 -10 29 -6
4 -8 20 -4 40 3 20 2 34 -4 34 -5 0 -11 7 -13 16 -2 12 -5 13 -15 3z"/>
<path d="M3322 1999 c-10 -15 -11 -24 -3 -32 6 -6 11 -16 11 -23 0 -19 -37 -5
-48 19 -9 19 -11 19 -11 4 -2 -47 63 -64 79 -21 13 33 13 37 -2 57 -12 16 -14
16 -26 -4z"/>
<path d="M3450 1720 c0 -5 5 -10 10 -10 6 0 10 5 10 10 0 6 -4 10 -10 10 -5 0
-10 -4 -10 -10z"/>
<path d="M3548 1673 c7 -3 16 -2 19 1 4 3 -2 6 -13 5 -11 0 -14 -3 -6 -6z"/>
<path d="M3501 1656 c-7 -8 -15 -31 -18 -51 -5 -30 -3 -37 8 -33 8 3 14 18 14
38 0 18 6 35 13 38 14 4 17 22 3 22 -5 0 -14 -6 -20 -14z"/>
<path d="M3280 1589 c0 -5 5 -7 10 -4 6 3 10 8 10 11 0 2 -4 4 -10 4 -5 0 -10
-5 -10 -11z"/>
<path d="M2965 1550 c3 -5 8 -10 11 -10 2 0 4 5 4 10 0 6 -5 10 -11 10 -5 0
-7 -4 -4 -10z"/>
<path d="M2970 1519 c0 -5 5 -7 10 -4 6 3 10 8 10 11 0 2 -4 4 -10 4 -5 0 -10
-5 -10 -11z"/>
<path d="M3020 1503 c0 -23 17 -49 26 -41 9 10 -4 58 -16 58 -6 0 -10 -8 -10
-17z"/>
<path d="M3457 1473 c-4 -3 -7 -13 -7 -22 0 -9 -7 -28 -14 -43 -14 -26 -5 -41
9 -18 4 6 11 7 17 4 6 -4 8 2 3 17 -4 17 -3 20 3 10 18 -26 31 -2 15 29 -16
33 -16 33 -26 23z"/>
<path d="M3400 1459 c0 -5 5 -7 10 -4 6 3 10 8 10 11 0 2 -4 4 -10 4 -5 0 -10
-5 -10 -11z"/>
<path d="M3080 1430 c0 -5 5 -10 11 -10 5 0 7 5 4 10 -3 6 -8 10 -11 10 -2 0
-4 -4 -4 -10z"/>
<path d="M3400 1371 c0 -6 4 -13 10 -16 6 -3 7 1 4 9 -7 18 -14 21 -14 7z"/>
<path d="M3325 1350 c-3 -5 -1 -10 4 -10 6 0 11 5 11 10 0 6 -2 10 -4 10 -3 0
-8 -4 -11 -10z"/>
<path d="M2980 1289 c0 -5 5 -7 10 -4 6 3 10 8 10 11 0 2 -4 4 -10 4 -5 0 -10
-5 -10 -11z"/>
<path d="M3176 1255 c-11 -8 -15 -15 -10 -15 6 0 19 7 30 15 10 8 15 14 9 14
-5 0 -19 -6 -29 -14z"/>
<path d="M2980 1253 c1 -14 27 -43 33 -37 8 9 -11 44 -23 44 -6 0 -10 -3 -10
-7z"/>
<path d="M3215 1230 c-3 -5 -1 -10 4 -10 6 0 11 5 11 10 0 6 -2 10 -4 10 -3 0
-8 -4 -11 -10z"/>
<path d="M3010 1180 c0 -5 4 -10 9 -10 5 0 11 -10 13 -22 3 -25 29 -31 36 -9
3 9 0 11 -8 6 -8 -5 -11 -3 -8 6 3 8 -2 19 -11 26 -20 15 -31 16 -31 3z"/>
<path d="M3080 1116 c0 -9 -7 -16 -15 -16 -20 0 -19 -9 5 -45 22 -33 25 -30
10 9 -7 20 -6 26 5 26 21 0 27 16 10 30 -12 10 -15 9 -15 -4z"/>
<path d="M3020 1056 c0 -8 5 -18 10 -21 6 -3 10 1 10 9 0 8 -4 18 -10 21 -5 3
-10 -1 -10 -9z"/>
<path d="M3110 1020 c13 -9 13 -11 0 -20 -12 -8 -12 -12 -2 -18 8 -5 10 -16 6
-28 -7 -18 -7 -18 13 -1 24 21 37 22 29 2 -4 -10 1 -15 14 -15 25 0 25 0 -2
46 -16 26 -31 40 -48 42 -20 2 -22 1 -10 -8z"/>
<path d="M3200 949 c0 -5 5 -7 10 -4 6 3 10 8 10 11 0 2 -4 4 -10 4 -5 0 -10
-5 -10 -11z"/>
<path d="M3095 900 c-3 -5 -3 -15 1 -21 6 -11 23 6 24 24 0 10 -18 9 -25 -3z"/>
<path d="M5185 7630 c-3 -6 1 -7 9 -4 18 7 21 14 7 14 -6 0 -13 -4 -16 -10z"/>
<path d="M6092 7599 c11 -17 19 -19 48 -12 19 4 58 8 87 8 35 0 46 3 36 9 -17
9 -92 10 -135 1 -17 -4 -28 -2 -28 4 0 6 -5 11 -10 11 -6 0 -5 -8 2 -21z"/>
<path d="M4960 7590 c-117 -32 -260 -93 -260 -109 0 -16 15 -13 43 9 14 11 30
20 36 20 6 0 30 9 54 19 56 26 133 51 156 51 10 0 24 7 31 15 7 8 11 15 9 14
-2 0 -33 -9 -69 -19z"/>
<path d="M6020 7590 c-8 -5 -10 -10 -5 -10 6 0 17 5 25 10 8 5 11 10 5 10 -5
0 -17 -5 -25 -10z"/>
<path d="M6231 7563 c7 -10 15 -20 16 -22 2 -2 3 3 3 11 0 9 -7 19 -16 22 -15
6 -15 4 -3 -11z"/>
<path d="M6274 7569 c-3 -6 -1 -16 5 -22 8 -8 11 -5 11 11 0 24 -5 28 -16 11z"/>
<path d="M6175 7540 c3 -5 8 -10 11 -10 2 0 4 5 4 10 0 6 -5 10 -11 10 -5 0
-7 -4 -4 -10z"/>
<path d="M6368 7533 c7 -3 16 -2 19 1 4 3 -2 6 -13 5 -11 0 -14 -3 -6 -6z"/>
<path d="M6311 7503 c-7 -8 -10 -17 -7 -20 9 -9 29 13 25 25 -2 6 -10 3 -18
-5z"/>
<path d="M6345 7490 c-3 -5 -1 -10 4 -10 6 0 11 5 11 10 0 6 -2 10 -4 10 -3 0
-8 -4 -11 -10z"/>
<path d="M4645 7460 c-3 -5 -2 -10 4 -10 5 0 13 5 16 10 3 6 2 10 -4 10 -5 0
-13 -4 -16 -10z"/>
<path d="M6320 7458 c0 -9 5 -20 10 -23 13 -8 13 5 0 25 -8 13 -10 13 -10 -2z"/>
<path d="M6385 7461 c-3 -5 -1 -12 5 -16 5 -3 10 1 10 9 0 18 -6 21 -15 7z"/>
<path d="M6600 7321 c0 -5 7 -12 16 -15 22 -9 24 -8 24 9 0 8 -9 15 -20 15
-11 0 -20 -4 -20 -9z"/>
<path d="M4160 7170 c-30 -26 -14 -26 25 0 19 12 24 20 14 20 -9 0 -26 -9 -39
-20z"/>
<path d="M3874 6975 c-10 -8 -14 -14 -9 -15 15 0 40 18 34 24 -3 3 -14 -1 -25
-9z"/>
<path d="M3815 6940 c-3 -5 -1 -10 4 -10 6 0 11 5 11 10 0 6 -2 10 -4 10 -3 0
-8 -4 -11 -10z"/>
<path d="M3114 6295 c-27 -24 -44 -44 -37 -45 15 0 100 77 92 84 -3 3 -27 -14
-55 -39z"/>
<path d="M2957 6119 c-3 -12 0 -19 8 -19 20 0 25 13 10 27 -10 9 -14 8 -18 -8z"/>
<path d="M2899 6047 c-15 -11 -22 -47 -10 -47 6 0 32 52 28 56 -1 1 -9 -3 -18
-9z"/>
<path d="M2824 5957 c-38 -68 -40 -75 -21 -58 10 7 17 18 17 23 0 5 11 21 25
36 27 29 30 38 16 46 -4 3 -21 -18 -37 -47z"/>
<path d="M2537 5524 c-15 -30 -24 -54 -19 -54 12 0 54 78 50 94 -2 8 -15 -10
-31 -40z"/>
<path d="M1 4329 l-1 -276 133 67 c72 37 210 102 306 144 154 68 229 106 209
106 -8 0 -68 -25 -108 -45 -14 -7 -38 -15 -54 -19 -24 -6 -28 -4 -22 10 5 14
4 15 -9 4 -8 -7 -12 -16 -9 -21 6 -10 -37 -29 -49 -22 -4 3 -13 0 -20 -5 -15
-13 -52 11 -42 27 3 6 -1 11 -9 11 -9 0 -16 -7 -16 -16 0 -12 -9 -14 -38 -12
l-37 3 -3 63 c-2 46 -7 62 -17 62 -10 0 -15 -10 -15 -30 0 -27 -3 -30 -30 -30
-27 0 -30 3 -30 30 0 25 4 30 25 30 15 0 36 11 51 27 21 23 23 28 9 35 -8 5
-20 6 -25 3 -5 -3 -25 -3 -45 1 -30 5 -35 10 -35 35 0 22 -5 29 -20 29 -11 0
-20 5 -20 10 0 6 -13 10 -28 10 -20 0 -32 7 -40 23 -8 16 -11 -48 -11 -254z
m349 -73 c0 -3 -13 -11 -30 -20 -24 -12 -30 -12 -30 -1 0 13 17 21 48 24 6 0
12 -1 12 -3z m-100 -51 c-42 -16 -73 -19 -65 -5 4 6 11 8 16 5 5 -4 17 -1 26
4 10 6 27 10 38 10 13 0 8 -5 -15 -14z"/>
<path d="M920 4450 c-8 -5 -10 -10 -5 -10 6 0 17 5 25 10 8 5 11 10 5 10 -5 0
-17 -5 -25 -10z"/>
<path d="M263 4417 c4 -10 7 -37 7 -60 0 -31 3 -38 10 -27 15 24 12 70 -7 88
-16 16 -16 16 -10 -1z"/>
<path d="M795 4410 c-13 -5 -14 -9 -5 -9 8 0 24 4 35 9 13 5 14 9 5 9 -8 0
-24 -4 -35 -9z"/>
<path d="M748 4393 c7 -3 16 -2 19 1 4 3 -2 6 -13 5 -11 0 -14 -3 -6 -6z"/>
<path d="M1620 4244 c0 -8 5 -12 10 -9 6 4 8 11 5 16 -9 14 -15 11 -15 -7z"/>
<path d="M1586 4114 c-10 -27 -7 -95 10 -189 22 -119 23 -163 8 -249 -18 -102
-16 -110 12 -37 14 36 28 93 31 128 3 35 12 68 20 75 8 6 34 11 58 10 25 0 43
4 39 9 -9 15 -86 10 -105 -7 -17 -16 -19 -15 -27 7 -12 32 -34 184 -34 232 1
40 -2 46 -12 21z"/>
<path d="M1469 4007 c-8 -12 -16 -47 -17 -79 -1 -31 -9 -69 -17 -85 -8 -15
-15 -45 -15 -65 0 -21 -4 -38 -10 -38 -14 0 -12 -27 3 -34 6 -3 2 -3 -10 0
-23 5 -33 -11 -12 -18 14 -5 18 -93 4 -93 -5 0 -10 14 -11 30 -1 35 -22 90
-30 82 -4 -3 -3 -19 2 -34 4 -15 6 -47 5 -70 -2 -23 1 -48 5 -55 7 -11 7 -74
1 -236 -1 -23 1 -42 6 -42 10 0 -3 -53 -16 -61 -5 -4 -7 -11 -3 -17 6 -9 -42
-111 -66 -140 -6 -7 -9 -14 -7 -17 11 -10 153 202 197 293 l19 40 -23 13 c-18
9 -23 18 -18 33 12 38 21 36 28 -5 2 -13 5 -25 5 -27 2 -7 27 24 33 39 5 13 2
16 -13 12 -17 -5 -18 -1 -13 42 3 32 2 45 -5 40 -6 -3 -11 -2 -11 4 0 5 4 11
10 13 12 4 15 59 6 113 -3 22 -7 118 -7 213 -1 94 -2 172 -2 172 -1 0 -9 -11
-18 -23z"/>
<path d="M1800 3831 c0 -5 7 -12 16 -15 14 -5 15 -4 4 9 -14 17 -20 19 -20 6z"/>
<path d="M1387 3793 c-11 -10 -8 -43 3 -43 6 0 10 11 10 25 0 26 -2 29 -13 18z"/>
<path d="M1840 3791 c0 -5 6 -14 14 -20 11 -9 16 -9 21 0 4 6 1 15 -6 20 -18
11 -29 11 -29 0z"/>
<path d="M1561 3524 c0 -11 3 -14 6 -6 3 7 2 16 -1 19 -3 4 -6 -2 -5 -13z"/>
<path d="M1815 3510 c-3 -5 -1 -10 4 -10 6 0 11 5 11 10 0 6 -2 10 -4 10 -3 0
-8 -4 -11 -10z"/>
<path d="M800 3481 c0 -6 4 -13 10 -16 6 -3 7 1 4 9 -7 18 -14 21 -14 7z"/>
<path d="M1705 3464 c-29 -31 -31 -44 -10 -44 8 0 15 7 15 15 0 9 6 18 14 21
17 7 29 34 15 34 -5 0 -21 -12 -34 -26z"/>
<path d="M30 3310 c0 -5 5 -10 11 -10 5 0 7 5 4 10 -3 6 -8 10 -11 10 -2 0 -4
-4 -4 -10z"/>
<path d="M150 3156 c0 -2 8 -10 18 -17 15 -13 16 -12 3 4 -13 16 -21 21 -21
13z"/>
<path d="M1260 3011 c0 -8 -7 -11 -15 -7 -9 3 -15 0 -15 -9 0 -8 4 -15 9 -15
13 0 35 29 27 37 -3 3 -6 1 -6 -6z"/>
<path d="M260 3002 c0 -5 7 -15 15 -22 8 -7 15 -8 15 -2 0 5 -7 15 -15 22 -8
7 -15 8 -15 2z"/>
<path d="M295 2950 c3 -5 8 -10 11 -10 2 0 4 5 4 10 0 6 -5 10 -11 10 -5 0 -7
-4 -4 -10z"/>
<path d="M1150 2760 c0 -5 5 -10 10 -10 6 0 10 5 10 10 0 6 -4 10 -10 10 -5 0
-10 -4 -10 -10z"/>
<path d="M660 2700 c0 -13 20 -13 40 0 12 8 9 10 -12 10 -16 0 -28 -4 -28 -10z"/>
<path d="M947 2456 c-4 -10 -1 -13 9 -9 7 3 14 9 14 14 0 14 -17 10 -23 -5z"/>
<path d="M925 2410 c-3 -5 -2 -10 4 -10 5 0 13 5 16 10 3 6 2 10 -4 10 -5 0
-13 -4 -16 -10z"/>
<path d="M864 2375 c-10 -8 -14 -15 -8 -15 5 0 19 7 30 15 10 8 14 15 8 15 -5
0 -19 -7 -30 -15z"/>
<path d="M788 2353 c7 -3 16 -2 19 1 4 3 -2 6 -13 5 -11 0 -14 -3 -6 -6z"/>
<path d="M849 2303 c-13 -16 -12 -17 4 -4 9 7 17 15 17 17 0 8 -8 3 -21 -13z"/>
<path d="M401 2064 c0 -11 3 -14 6 -6 3 7 2 16 -1 19 -3 4 -6 -2 -5 -13z"/>
<path d="M355 1930 c-30 -8 -30 -8 8 -9 20 0 37 4 37 9 0 11 -2 11 -45 0z"/>
<path d="M6555 1920 c4 -6 11 -8 16 -5 14 9 11 15 -7 15 -8 0 -12 -5 -9 -10z"/>
<path d="M330 1900 c0 -5 5 -10 10 -10 6 0 10 5 10 10 0 6 -4 10 -10 10 -5 0
-10 -4 -10 -10z"/>
<path d="M6563 1802 c-7 -4 -9 -13 -4 -21 6 -10 10 -9 15 5 8 20 4 25 -11 16z"/>
<path d="M140 1770 c0 -19 3 -21 12 -12 9 9 9 15 0 24 -9 9 -12 7 -12 -12z"/>
<path d="M225 1769 c-4 -6 -5 -13 -2 -16 7 -7 27 6 27 18 0 12 -17 12 -25 -2z"/>
<path d="M200 1664 c0 -8 5 -12 10 -9 6 3 10 10 10 16 0 5 -4 9 -10 9 -5 0
-10 -7 -10 -16z"/>
<path d="M158 1656 c-24 -18 -23 -33 3 -41 25 -8 27 -7 20 27 -5 23 -8 25 -23
14z"/>
<path d="M280 1659 c0 -5 5 -7 10 -4 6 3 10 8 10 11 0 2 -4 4 -10 4 -5 0 -10
-5 -10 -11z"/>
<path d="M240 1646 c0 -9 -4 -16 -10 -16 -5 0 -10 -7 -10 -15 0 -23 14 -18 27
10 6 14 7 27 2 31 -5 3 -9 -2 -9 -10z"/>
<path d="M6502 1501 c2 -7 7 -12 11 -12 12 1 9 15 -3 20 -7 2 -11 -2 -8 -8z"/>
<path d="M6010 1430 c0 -5 4 -10 9 -10 6 0 13 5 16 10 3 6 -1 10 -9 10 -9 0
-16 -4 -16 -10z"/>
<path d="M6460 933 c0 -13 27 -49 33 -43 3 3 -3 16 -14 29 -10 13 -19 19 -19
14z"/>
<path d="M5680 569 c0 -5 5 -7 10 -4 6 3 10 8 10 11 0 2 -4 4 -10 4 -5 0 -10
-5 -10 -11z"/>
<path d="M5755 350 c-27 -18 -28 -20 -8 -20 12 0 27 9 33 20 13 25 12 25 -25
0z"/>
<path d="M5686 314 c-5 -14 -4 -15 9 -4 17 14 19 20 6 20 -5 0 -12 -7 -15 -16z"/>
<path d="M5630 284 c0 -8 5 -12 10 -9 6 4 8 11 5 16 -9 14 -15 11 -15 -7z"/>
<path d="M6395 236 c28 -20 66 -47 86 -61 21 -13 62 -44 93 -69 58 -48 66 -52
66 -36 0 10 -66 80 -72 75 -2 -1 -12 7 -23 17 -20 20 -20 20 4 13 15 -4 21 -3
17 3 -3 5 -22 13 -41 16 -19 4 -35 11 -35 16 0 6 -7 10 -16 10 -8 0 -13 4 -9
9 3 5 0 13 -6 17 -8 4 -9 3 -5 -4 10 -17 -10 -15 -28 3 -8 8 -30 18 -48 21
-32 6 -32 6 17 -30z"/>
</g>
</svg>
