<?xml version="1.0" standalone="no"?>
<!DOCTYPE svg PUBLIC "-//W3C//DTD SVG 20010904//EN"
 "http://www.w3.org/TR/2001/REC-SVG-20010904/DTD/svg10.dtd">
<svg version="1.0" xmlns="http://www.w3.org/2000/svg"
 width="899.000000pt" height="1599.000000pt" viewBox="0 0 899.000000 1599.000000"
 preserveAspectRatio="xMidYMid meet">

<g transform="translate(0.000000,1599.000000) scale(0.100000,-0.100000)"
fill="#000000" stroke="none">
<path d="M190 15981 c0 -5 11 -18 25 -29 18 -15 25 -29 25 -56 0 -20 5 -36 10
-36 6 0 10 7 10 16 0 12 9 15 35 13 19 -2 40 2 47 9 9 9 2 12 -35 12 l-47 0 0
40 c0 39 -1 40 -35 40 -19 0 -35 -4 -35 -9z"/>
<path d="M80 15927 c0 -10 -4 -17 -10 -17 -5 0 -10 -13 -10 -29 0 -28 2 -29
50 -33 l50 -3 0 33 c0 21 -5 32 -14 32 -8 0 -17 6 -19 13 -4 9 -6 8 -6 -2 -1
-11 -6 -10 -21 4 -18 16 -20 16 -20 2z"/>
<path d="M140 15710 c0 -22 5 -40 10 -40 6 0 10 18 10 40 0 22 -4 40 -10 40
-5 0 -10 -18 -10 -40z"/>
<path d="M1630 15140 c-19 -4 -48 -13 -65 -19 -24 -9 -19 -9 30 -3 33 4 115 6
183 6 76 -1 120 2 114 8 -13 13 -218 19 -262 8z"/>
<path d="M1438 15085 c-58 -24 -111 -55 -93 -55 15 0 169 61 180 71 17 17 -29
9 -87 -16z"/>
<path d="M4885 14021 c3 -6 20 -11 36 -11 17 0 43 -7 59 -15 17 -9 30 -13 30
-11 0 10 -55 33 -93 40 -27 5 -37 4 -32 -3z"/>
<path d="M3958 13753 c7 -3 16 -2 19 1 4 3 -2 6 -13 5 -11 0 -14 -3 -6 -6z"/>
<path d="M4060 13740 c14 -4 36 -8 50 -8 22 0 22 1 -5 8 -16 4 -39 8 -50 8
-16 0 -15 -2 5 -8z"/>
<path d="M4228 13033 c7 -3 16 -2 19 1 4 3 -2 6 -13 5 -11 0 -14 -3 -6 -6z"/>
<path d="M3783 13001 c-67 -4 -125 -10 -129 -13 -9 -10 255 3 281 13 23 9 37
9 -152 0z"/>
<path d="M3608 12983 c7 -3 16 -2 19 1 4 3 -2 6 -13 5 -11 0 -14 -3 -6 -6z"/>
<path d="M3471 12969 c-24 -5 -46 -11 -49 -14 -9 -9 41 -5 103 9 47 11 53 14
25 14 -19 0 -55 -4 -79 -9z"/>
<path d="M3580 12570 c-36 -20 -26 -25 28 -14 17 3 33 12 36 20 8 20 -22 17
-64 -6z"/>
<path d="M3625 12542 c-25 -20 -40 -53 -22 -47 7 2 32 6 57 9 25 3 59 10 75
15 l30 10 -30 -1 c-36 -2 -75 10 -75 23 0 13 -12 10 -35 -9z"/>
<path d="M4632 12338 c7 -4 40 -7 73 -7 73 1 62 6 -23 11 -34 3 -57 1 -50 -4z"/>
<path d="M1948 12173 c7 -3 16 -2 19 1 4 3 -2 6 -13 5 -11 0 -14 -3 -6 -6z"/>
<path d="M2595 12020 c-3 -5 -1 -10 4 -10 6 0 11 5 11 10 0 6 -2 10 -4 10 -3
0 -8 -4 -11 -10z"/>
<path d="M2671 11974 c0 -11 3 -14 6 -6 3 7 2 16 -1 19 -3 4 -6 -2 -5 -13z"/>
<path d="M2520 11960 c0 -5 7 -10 15 -10 8 0 15 5 15 10 0 6 -7 10 -15 10 -8
0 -15 -4 -15 -10z"/>
<path d="M3065 11950 c3 -5 11 -10 16 -10 6 0 7 5 4 10 -3 6 -11 10 -16 10 -6
0 -7 -4 -4 -10z"/>
<path d="M3155 11910 c-3 -6 1 -7 9 -4 18 7 21 14 7 14 -6 0 -13 -4 -16 -10z"/>
<path d="M2640 11892 c6 -13 14 -21 18 -18 3 4 -2 14 -12 24 -18 16 -18 16 -6
-6z"/>
<path d="M2395 11880 c3 -5 8 -10 11 -10 2 0 4 5 4 10 0 6 -5 10 -11 10 -5 0
-7 -4 -4 -10z"/>
<path d="M3325 11790 c-3 -5 -2 -10 4 -10 5 0 13 5 16 10 3 6 2 10 -4 10 -5 0
-13 -4 -16 -10z"/>
<path d="M3420 11765 c-11 -13 -10 -14 4 -9 9 3 16 10 16 15 0 13 -6 11 -20
-6z"/>
<path d="M4878 11659 c9 -10 40 -14 100 -16 l87 -1 -80 7 c-44 5 -89 12 -100
16 -17 7 -18 6 -7 -6z"/>
<path d="M2360 11583 c1 -11 26 -43 34 -43 11 0 6 21 -8 36 -16 15 -26 18 -26
7z"/>
<path d="M3767 11573 c-12 -11 -8 -23 8 -23 8 0 15 7 15 15 0 16 -12 20 -23 8z"/>
<path d="M3420 11540 c0 -5 5 -10 10 -10 6 0 10 5 10 10 0 6 -4 10 -10 10 -5
0 -10 -4 -10 -10z"/>
<path d="M3830 11531 c0 -11 13 -33 29 -48 52 -51 65 -131 32 -196 -29 -57
-32 -67 -16 -61 8 3 23 36 35 73 22 72 19 151 -6 172 -8 6 -14 17 -14 23 0 15
-37 56 -50 56 -6 0 -10 -9 -10 -19z"/>
<path d="M2300 11480 c0 -5 7 -10 15 -10 8 0 15 -5 15 -12 0 -6 3 -8 6 -5 8 8
-14 37 -27 37 -5 0 -9 -4 -9 -10z"/>
<path d="M3077 11483 c-9 -8 87 -73 108 -73 30 0 14 28 -29 54 -45 26 -67 32
-79 19z"/>
<path d="M3510 11230 c0 -19 3 -21 12 -12 9 9 9 15 0 24 -9 9 -12 7 -12 -12z"/>
<path d="M2720 11200 c0 -5 7 -10 15 -10 8 0 15 5 15 10 0 6 -7 10 -15 10 -8
0 -15 -4 -15 -10z"/>
<path d="M3815 11176 c-16 -13 -28 -27 -25 -30 7 -6 20 3 44 32 25 28 19 28
-19 -2z"/>
<path d="M4912 10746 c0 -45 -7 -76 -22 -106 -29 -56 -18 -63 14 -8 28 48 42
114 32 153 -12 46 -24 26 -24 -39z"/>
<path d="M5036 10576 c-42 -64 -90 -140 -106 -169 -17 -29 -38 -62 -47 -74
-13 -19 -13 -23 -1 -23 7 0 37 39 66 88 51 82 118 182 142 210 6 7 15 10 21 7
5 -4 9 -1 9 4 0 6 -4 11 -10 11 -6 0 -6 9 1 26 21 57 -3 31 -75 -80z"/>
<path d="M4660 10490 c0 -5 20 -10 44 -10 25 0 48 5 51 10 4 6 -13 10 -44 10
-28 0 -51 -4 -51 -10z"/>
<path d="M5368 10193 c-8 -10 -18 -27 -22 -38 -5 -15 0 -14 19 8 14 15 25 32
25 38 0 13 -5 11 -22 -8z"/>
<path d="M7533 9743 c-7 -2 -13 -9 -13 -15 0 -12 41 -6 41 7 1 12 -11 15 -28
8z"/>
<path d="M7135 9730 c-17 -7 -14 -9 13 -9 20 -1 31 3 27 9 -7 12 -13 12 -40 0z"/>
<path d="M7275 9722 c-16 -2 -35 -8 -40 -12 -6 -5 -46 -11 -90 -14 -44 -3
-118 -16 -165 -27 -46 -12 -89 -22 -95 -23 -5 -1 -21 -9 -35 -18 -14 -9 -85
-35 -159 -57 -74 -23 -140 -46 -148 -53 -7 -6 -34 -12 -59 -15 -53 -4 -77 -15
-118 -52 -19 -18 -30 -22 -33 -13 -3 6 -11 12 -19 12 -9 0 -12 -5 -8 -11 4 -7
1 -10 -7 -7 -18 7 -111 -34 -137 -60 -10 -10 -50 -34 -88 -52 -37 -17 -73 -38
-79 -45 -14 -18 -55 -29 -55 -16 0 6 6 11 14 11 8 0 29 12 47 27 17 15 54 37
82 50 27 13 47 26 44 29 -7 7 -97 -25 -113 -41 -6 -5 -34 -23 -62 -40 -42 -24
-52 -35 -52 -57 0 -27 -15 -39 -22 -18 -5 16 -79 -28 -121 -71 -21 -21 -43
-39 -49 -39 -7 0 -22 -9 -34 -21 -12 -11 -32 -21 -45 -21 -13 -1 -33 -9 -44
-18 -36 -29 -175 -120 -185 -120 -5 0 -15 -8 -22 -19 -7 -10 -17 -19 -23 -21
-5 -1 -19 -7 -30 -12 -18 -8 -18 -8 3 -4 20 4 18 0 -15 -29 -21 -19 -50 -37
-65 -40 -14 -3 -29 -13 -32 -22 -4 -8 -13 -13 -21 -9 -9 3 -24 -2 -34 -12 -10
-9 -38 -33 -62 -52 -100 -82 -179 -152 -179 -161 0 -5 -5 -9 -11 -9 -6 0 -65
-53 -131 -117 -65 -65 -123 -117 -127 -116 -5 1 -14 -11 -21 -27 -7 -16 -43
-59 -81 -95 -38 -35 -69 -71 -69 -79 0 -8 -19 -38 -42 -66 -24 -29 -47 -60
-53 -69 -16 -27 -94 -120 -164 -197 -81 -87 -152 -168 -189 -213 -15 -19 -39
-48 -53 -65 -31 -38 -176 -257 -202 -306 -11 -19 -34 -63 -53 -97 -19 -35 -32
-63 -28 -63 3 0 1 -6 -5 -14 -34 -40 -128 -234 -156 -321 -13 -38 -44 -124
-70 -190 -52 -134 -70 -196 -91 -305 -7 -41 -20 -104 -28 -140 -15 -64 -62
-412 -82 -600 -18 -171 -27 -212 -50 -237 -24 -26 -35 -58 -12 -35 19 19 28
14 20 -9 -5 -11 -12 -20 -16 -19 -5 1 -16 -14 -25 -32 -24 -50 -40 -59 -65
-34 -22 20 -22 22 -4 42 23 26 23 37 1 24 -104 -57 -208 -84 -224 -59 -7 12
-9 12 -9 -1 0 -8 -9 -21 -20 -28 -11 -7 -20 -21 -20 -32 0 -10 -8 -25 -19 -32
-10 -7 -21 -23 -25 -35 -6 -19 -4 -23 14 -23 15 0 20 -5 17 -14 -3 -8 7 -31
24 -52 29 -36 41 -70 17 -46 -7 7 -20 12 -30 12 -10 0 -18 7 -18 15 0 16 -47
51 -56 42 -3 -3 10 -21 30 -40 25 -25 31 -38 23 -46 -8 -8 -5 -11 11 -11 13 0
22 -6 22 -15 0 -10 -10 -15 -26 -15 -22 0 -24 -3 -15 -14 10 -12 2 -25 -38
-67 -28 -30 -51 -57 -51 -62 0 -5 -11 -18 -24 -28 -21 -17 -42 -59 -29 -59 7
0 53 49 53 56 0 14 80 83 85 74 3 -6 18 -10 33 -11 27 0 27 0 4 -10 -13 -5
-20 -13 -17 -19 3 -5 0 -10 -8 -10 -10 0 -13 -7 -10 -20 5 -18 2 -19 -28 -14
l-34 5 25 -21 c15 -14 34 -20 50 -18 18 3 27 -1 27 -9 0 -8 -7 -11 -14 -9 -8
3 -12 2 -9 -3 7 -11 -37 -41 -59 -41 -8 0 -15 -6 -15 -13 0 -16 -27 -33 -67
-41 -20 -5 -30 -12 -27 -20 7 -18 -16 -25 -65 -22 -23 2 -44 -1 -47 -5 -3 -5
-22 -9 -42 -10 -37 -1 -37 -1 -9 -11 26 -9 36 -31 18 -42 -14 -9 -52 -96 -46
-107 4 -5 -6 -14 -20 -19 -14 -5 -24 -14 -21 -19 3 -4 -1 -17 -9 -27 -17 -22
-19 -34 -6 -34 5 0 12 11 15 25 4 14 13 25 21 25 9 0 12 -6 8 -17 -8 -25 -44
-63 -58 -63 -25 0 -48 -39 -42 -70 5 -20 3 -30 -6 -30 -14 -1 -79 -100 -87
-132 -5 -21 -45 -51 -82 -64 -23 -8 -23 -23 -1 -39 15 -11 15 -13 -5 -24 -14
-7 -23 -8 -27 -1 -3 5 -1 10 4 10 6 0 11 5 11 10 0 14 -23 13 -38 -2 -10 -10
-8 -16 10 -29 19 -15 20 -19 8 -34 -7 -9 -22 -14 -32 -12 -10 3 -21 1 -24 -4
-3 -5 0 -9 6 -9 15 0 -9 -24 -32 -33 -10 -3 -18 -11 -18 -17 0 -5 -7 -10 -16
-10 -8 0 -12 -4 -9 -10 8 -13 -24 -60 -40 -60 -8 0 -15 -10 -17 -21 -2 -12
-12 -27 -23 -33 -26 -14 -36 -28 -30 -43 11 -31 -92 -72 -110 -43 -7 11 -35 2
-35 -11 0 -5 9 -9 19 -9 26 0 36 -31 15 -47 -9 -7 -14 -19 -11 -27 5 -11 -4
-18 -32 -26 -40 -11 -40 -9 -43 -86 -1 -26 -10 -36 -54 -65 -30 -19 -54 -37
-54 -41 0 -11 2 -10 43 7 43 18 47 18 47 5 0 -5 -14 -17 -31 -25 -23 -12 -29
-21 -24 -36 5 -15 2 -19 -14 -19 -12 0 -21 -4 -21 -9 0 -4 -28 -17 -62 -27
-35 -10 -65 -19 -68 -20 -3 -1 -15 -5 -27 -9 -12 -4 -27 -20 -33 -35 -7 -16
-18 -31 -27 -34 -8 -3 -11 -11 -7 -17 4 -7 -1 -10 -12 -7 -15 3 -18 11 -16 42
5 47 37 126 52 126 6 0 8 5 5 10 -4 6 -11 8 -16 5 -5 -4 -9 -2 -9 3 0 17 29
80 40 87 5 3 10 15 10 25 0 10 6 23 13 27 7 4 20 18 28 30 8 12 45 53 81 92
74 79 108 123 108 141 0 6 7 18 15 27 12 11 13 18 4 29 -8 10 -7 19 5 36 9 12
16 31 16 41 0 18 21 74 40 107 47 81 72 147 76 201 6 68 -11 79 -30 21 -6 -17
-27 -50 -46 -73 -19 -23 -37 -47 -39 -53 -2 -5 -12 -19 -22 -30 -23 -24 -92
-158 -109 -211 -7 -22 -16 -44 -21 -49 -5 -6 -9 -20 -9 -33 0 -13 -6 -26 -12
-28 -7 -3 -14 -22 -15 -42 -1 -20 -6 -39 -11 -42 -5 -3 -12 -18 -16 -34 -3
-15 -11 -27 -16 -27 -13 0 -13 36 0 80 19 64 59 323 76 485 26 250 15 430 -32
517 -8 14 -14 33 -14 42 0 9 -6 16 -14 16 -17 0 -17 0 11 -345 16 -200 13
-381 -7 -468 -5 -23 -11 -55 -15 -70 -3 -15 -9 -26 -14 -23 -4 3 -21 1 -37 -4
-28 -8 -28 -8 -4 -10 14 -1 29 -2 33 -1 5 1 7 -8 5 -20 -2 -16 -11 -23 -32
-25 -16 -2 -37 -12 -48 -24 -20 -21 -50 -22 -136 -4 -12 2 -22 0 -22 -6 0 -5
-4 -10 -10 -10 -5 0 -10 9 -10 19 0 11 -9 23 -20 26 -11 3 -25 15 -30 26 -6
10 -20 19 -30 19 -14 0 -20 7 -20 24 0 13 -6 29 -14 36 -8 6 -16 21 -18 32 -4
27 -28 36 -28 11 -1 -10 -11 2 -23 27 -13 27 -29 45 -39 45 -19 0 -47 32 -48
53 0 8 -13 27 -30 42 l-30 28 7 -27 c3 -14 14 -37 23 -51 51 -75 110 -189 110
-212 0 -6 6 -19 14 -27 16 -19 65 -212 68 -267 1 -21 -2 -47 -6 -56 -6 -14 -4
-18 13 -18 12 0 21 -3 21 -6 0 -11 -54 -54 -67 -54 -7 0 -13 -4 -13 -10 0 -15
28 -12 55 6 22 15 25 15 25 1 0 -9 -4 -19 -10 -22 -5 -3 -10 -15 -10 -26 0
-10 -3 -19 -7 -19 -5 -1 -19 -10 -33 -21 -22 -19 -23 -22 -7 -30 21 -12 22
-29 2 -29 -8 0 -15 -9 -15 -20 0 -11 7 -20 15 -20 8 0 15 -5 15 -11 0 -19 -34
-69 -46 -69 -7 0 -14 -26 -19 -65 -5 -49 -12 -69 -26 -78 -10 -6 -19 -17 -19
-24 0 -7 -6 -13 -14 -13 -8 0 -17 -4 -21 -9 -3 -6 9 -7 30 -4 46 7 46 -9 -3
-54 -29 -28 -32 -34 -14 -28 13 4 22 2 22 -4 0 -6 -4 -11 -9 -11 -12 0 -41
-29 -41 -41 0 -5 11 -9 24 -9 30 0 42 -15 20 -24 -10 -4 -13 -13 -9 -26 4 -13
1 -22 -9 -26 -9 -3 -16 -17 -16 -30 0 -12 -8 -28 -17 -33 -15 -9 -15 -12 -5
-19 11 -8 11 -10 -2 -15 -9 -4 -16 -16 -16 -27 0 -25 -18 -46 -46 -53 -16 -4
-16 -5 -1 -6 21 -1 22 -17 2 -25 -8 -3 -15 -11 -15 -18 0 -7 -5 -29 -10 -49
-9 -31 -13 -36 -35 -31 -18 3 -25 0 -25 -12 0 -21 -53 -22 -70 -1 -7 8 -19 15
-26 15 -8 0 -14 10 -14 25 0 14 -4 25 -10 25 -5 0 -10 20 -10 45 0 46 4 51 29
36 12 -8 12 -12 2 -24 -10 -12 -10 -20 1 -36 19 -31 28 -25 28 19 0 22 -4 40
-9 40 -5 0 -14 14 -21 30 -14 35 -11 34 -55 16 -18 -8 -36 -12 -39 -9 -3 3 -8
-2 -12 -11 -10 -26 -21 -19 -28 19 -9 48 -25 44 -19 -5 4 -31 2 -40 -10 -40
-8 0 -17 9 -20 21 -6 23 -27 17 -27 -7 0 -19 -73 -19 -89 0 -10 11 -8 17 6 25
16 9 15 10 -9 11 -18 0 -28 -5 -28 -15 0 -8 -9 -15 -20 -15 -11 0 -28 -4 -38
-9 -53 -27 -71 -33 -83 -25 -9 5 -8 9 7 15 17 7 17 8 -4 8 -15 1 -26 -8 -34
-25 -7 -15 -23 -27 -40 -31 -19 -4 -28 -12 -28 -25 0 -15 -5 -18 -21 -13 -13
4 -27 0 -40 -11 -17 -16 -19 -32 -19 -196 0 -165 1 -178 18 -178 10 0 23 -5
29 -11 13 -13 33 -4 33 17 0 10 12 14 41 14 35 0 41 -3 37 -18 -4 -15 1 -17
36 -13 23 2 44 8 48 14 4 6 11 8 15 3 4 -5 2 -11 -4 -13 -16 -6 -17 -23 -1
-23 18 0 47 -31 42 -45 -3 -7 4 -15 15 -18 36 -9 36 -34 0 -68 -27 -26 -37
-29 -51 -20 -16 10 -18 7 -18 -18 0 -22 -5 -30 -22 -34 -13 -2 -31 -8 -40 -12
-14 -5 -18 -2 -18 13 0 20 -5 21 -80 19 l-80 -1 0 -773 0 -773 4199 0 4199 0
4 35 c3 27 0 35 -12 35 -10 1 -7 8 12 23 15 12 27 31 27 42 0 11 4 60 9 110 9
83 8 93 -11 130 -12 22 -21 44 -22 50 0 9 -28 25 -128 70 -31 15 -55 31 -51
36 3 5 10 6 17 2 6 -3 36 -12 66 -19 51 -12 57 -12 74 6 10 11 13 20 7 20 -5
0 -10 10 -10 23 0 30 -45 63 -96 73 -48 8 -89 28 -106 51 -7 10 -22 19 -32 21
-16 3 -18 -1 -13 -31 3 -19 15 -54 26 -78 12 -23 21 -45 21 -47 0 -7 -73 9
-105 23 -48 21 -73 24 -92 10 -10 -7 -31 -11 -49 -8 -20 3 -36 0 -47 -11 -8
-9 -23 -16 -31 -16 -9 0 -16 -4 -16 -8 0 -5 -21 -23 -46 -40 -44 -32 -46 -32
-51 -12 -7 26 -27 21 -31 -9 -3 -19 -8 -22 -30 -16 -15 4 -30 12 -34 18 -5 9
-10 9 -20 -1 -6 -6 -20 -12 -31 -12 -13 0 -17 -5 -13 -17 7 -25 -27 -63 -57
-63 -17 0 -24 -5 -23 -17 0 -10 -9 -19 -24 -23 -16 -4 -24 -13 -24 -24 2 -14
-6 -17 -50 -14 -37 2 -51 7 -51 18 0 11 9 14 33 12 36 -4 41 4 15 24 -16 12
-12 14 32 15 37 2 42 3 18 6 -33 4 -42 16 -23 28 15 9 12 35 -5 35 -7 0 -19
-8 -25 -18 -8 -13 -9 -11 -4 13 4 17 13 39 20 50 8 11 14 30 14 42 0 13 5 22
12 21 7 -2 17 12 23 30 6 19 16 37 21 40 23 17 34 54 28 95 -4 23 -3 39 1 35
14 -13 35 13 35 42 0 42 10 60 34 61 15 1 16 3 4 6 -14 3 -15 9 -6 36 5 18 10
38 11 46 0 8 9 16 19 19 12 3 18 14 18 33 0 16 5 29 10 29 6 0 10 10 10 23 1
22 18 53 33 55 4 1 11 2 17 2 6 0 7 18 3 45 -5 41 -4 45 20 54 28 11 49 42 55
80 2 13 10 37 18 53 12 22 12 37 4 68 -6 22 -15 40 -19 40 -5 0 -14 13 -20 30
-11 32 2 41 18 13 5 -10 13 -14 18 -10 4 5 0 21 -9 37 -15 27 -15 30 22 106
20 44 43 97 50 119 6 22 21 58 31 81 10 22 19 45 19 51 0 6 10 13 23 17 18 5
20 8 7 16 -13 8 -13 10 2 10 9 0 20 5 24 12 5 8 2 9 -9 5 -23 -9 -22 14 3 45
23 30 44 78 41 93 -2 6 1 7 5 3 4 -4 20 4 36 17 16 14 33 25 38 25 10 0 25
-40 21 -58 -5 -30 72 -161 139 -237 89 -100 139 -171 230 -325 40 -67 74 -119
77 -116 3 2 -4 18 -16 34 -12 17 -21 44 -20 64 0 18 3 27 6 21 2 -7 9 -13 15
-13 6 0 8 6 5 14 -13 33 25 423 45 463 6 12 8 33 4 46 -8 33 2 57 20 50 22 -8
17 40 -7 71 -23 29 -19 47 6 26 23 -19 27 -9 32 72 2 40 8 75 14 79 11 6 6
111 -6 141 -4 9 1 28 11 42 15 25 15 28 0 45 -21 23 -20 29 7 33 14 2 22 10
22 23 0 11 11 25 23 31 13 6 40 30 61 53 20 22 40 41 44 41 8 0 65 49 98 84 9
10 23 15 29 11 13 -8 50 22 50 42 0 7 -7 13 -15 13 -8 0 -15 5 -15 10 0 6 6
10 14 10 11 0 14 23 15 115 2 128 -6 141 -48 80 -13 -19 -26 -35 -30 -35 -3 0
-26 -18 -51 -40 -41 -36 -60 -48 -60 -35 0 18 26 54 51 70 16 11 41 43 54 71
14 29 38 63 55 77 l30 26 0 2892 c0 2677 -1 2894 -17 2911 -15 17 -15 18 0 18
10 0 17 5 17 11 0 7 -12 9 -35 5 -27 -5 -37 -3 -41 9 -3 8 -14 15 -24 15 -11
0 -22 5 -25 10 -3 6 -14 10 -24 10 -21 0 -64 34 -54 44 3 3 17 -1 29 -9 21
-14 24 -13 34 5 8 15 6 21 -8 29 -11 6 -18 19 -17 33 2 22 6 23 61 20 l59 -3
-25 21 c-14 11 -29 20 -34 20 -5 0 -2 8 7 18 21 23 22 39 2 22 -8 -6 -19 -9
-25 -5 -5 3 -10 2 -10 -3 0 -18 -81 -21 -116 -4 -34 16 -45 32 -21 32 7 0 17
-4 22 -9 14 -13 89 -18 90 -6 0 6 4 16 8 23 6 8 0 12 -22 12 -16 0 -32 -4 -35
-9 -4 -6 -20 -6 -41 0 -23 7 -41 6 -54 -1 -31 -16 -34 4 -10 55 21 45 21 64 0
50 -6 -3 -11 -14 -11 -24 0 -10 -9 -28 -20 -41 -11 -13 -21 -31 -21 -42 -4
-51 -15 -59 -24 -17 -15 65 -62 79 -77 22 -16 -62 -30 -49 -25 23 3 38 6 70 6
71 1 1 8 0 16 -3 8 -4 15 -1 15 5 0 6 -9 11 -20 11 -14 0 -22 -11 -31 -40 -13
-42 -35 -57 -26 -17 7 26 -6 52 -22 43 -6 -4 -11 -1 -11 6 -1 8 -6 6 -15 -6
-8 -10 -12 -23 -9 -28 3 -5 3 -21 -1 -36 -7 -25 -8 -25 -15 -7 -5 11 -9 35 -9
54 l-1 34 -22 -29 c-12 -16 -24 -32 -28 -36 -3 -4 -4 24 -2 62 3 47 1 70 -7
70 -6 0 -11 -7 -11 -15 0 -8 -4 -15 -10 -15 -17 0 -11 27 8 35 15 6 14 9 -8
27 -25 20 -25 20 -28 0 -3 -19 -6 -18 -85 14 -45 18 -88 34 -96 34 -8 0 -19 7
-25 14 -6 8 -49 22 -96 32 -102 20 -118 27 -122 56 -2 13 -7 22 -13 20 -5 -2
-9 -14 -7 -27 4 -28 -24 -36 -34 -10 -7 16 -141 62 -151 51 -10 -9 0 -15 56
-35 75 -26 70 -29 -22 -10 -45 9 -130 19 -188 23 -59 3 -113 8 -120 10 -29 9
-65 12 -94 8z m65 -42 c-8 -5 -35 -9 -60 -9 -37 1 -41 2 -20 9 38 12 99 12 80
0z m560 -60 c0 -5 -4 -10 -10 -10 -5 0 -10 -8 -11 -17 0 -15 -2 -15 -8 2 -5
11 -7 23 -4 28 6 11 33 9 33 -3z m55 -67 c34 -38 32 -47 -5 -15 -16 15 -30 30
-30 34 0 14 8 9 35 -19z m-110 7 c3 -5 1 -10 -4 -10 -6 0 -11 5 -11 10 0 6 2
10 4 10 3 0 8 -4 11 -10z m328 -37 c2 -14 -1 -23 -8 -23 -7 0 -19 -10 -28 -22
-15 -22 -15 -21 -7 15 4 20 6 37 3 37 -2 0 -2 4 1 8 10 17 34 8 39 -15z m-349
2 c14 -10 17 -18 10 -25 -7 -7 -18 -2 -34 15 -26 28 -9 35 24 10z m-70 -20
c-7 -17 -20 -20 -29 -6 -3 5 3 12 12 14 10 3 19 5 20 6 1 0 0 -6 -3 -14z m441
-115 c3 -5 1 -10 -4 -10 -6 0 -11 5 -11 10 0 6 2 10 4 10 3 0 8 -4 11 -10z m2
-97 c-2 -16 -4 -5 -4 22 0 28 2 40 4 28 2 -13 2 -35 0 -50z m-1042 -103 c15
-6 26 -13 23 -15 -8 -8 -68 16 -68 27 0 5 4 7 9 4 4 -3 21 -10 36 -16z m1696
-172 c46 -22 62 -38 37 -38 -13 0 -98 48 -98 55 0 9 13 5 61 -17z m-341 -88
c0 -5 -4 -10 -10 -10 -5 0 -10 5 -10 10 0 6 5 10 10 10 6 0 10 -4 10 -10z
m225 -18 c-3 -3 -11 0 -18 7 -9 10 -8 11 6 5 10 -3 15 -9 12 -12z m-705 -2 c0
-5 -7 -10 -16 -10 -8 0 -12 5 -9 10 3 6 10 10 16 10 5 0 9 -4 9 -10z m725 -48
c-6 -7 -35 18 -35 31 0 5 9 2 20 -8 11 -10 18 -20 15 -23z m-995 -21 c0 -12
-20 -25 -27 -18 -7 7 6 27 18 27 5 0 9 -4 9 -9z m925 -11 c10 -11 14 -20 9
-20 -12 1 -44 25 -44 34 0 12 17 6 35 -14z m-80 0 c3 -5 2 -10 -4 -10 -5 0
-13 5 -16 10 -3 6 -2 10 4 10 5 0 13 -4 16 -10z m185 -20 c8 -5 12 -11 9 -14
-3 -3 -14 1 -25 9 -21 16 -8 20 16 5z m-1215 -49 c-3 -6 -11 -11 -17 -11 -6 0
-6 6 2 15 14 17 26 13 15 -4z m800 -41 c3 -5 1 -10 -4 -10 -6 0 -11 5 -11 10
0 6 2 10 4 10 3 0 8 -4 11 -10z m-339 -61 c8 -14 -10 -11 -32 6 -18 13 -18 14
4 8 12 -3 25 -9 28 -14z m-661 -129 c3 -5 1 -10 -4 -10 -6 0 -11 5 -11 10 0 6
2 10 4 10 3 0 8 -4 11 -10z m545 -32 c0 -6 -6 -5 -15 2 -8 7 -15 14 -15 16 0
2 7 1 15 -2 8 -4 15 -11 15 -16z m-580 -54 c0 -15 6 -24 15 -24 8 0 15 -3 15
-8 0 -4 -18 -6 -41 -4 -22 3 -46 -1 -52 -7 -15 -15 -27 -14 -27 2 0 8 17 23
38 34 20 11 36 26 34 32 -1 7 2 10 8 6 5 -3 10 -17 10 -31z m-383 -30 c-3 -3
-12 -4 -19 -1 -8 3 -5 6 6 6 11 1 17 -2 13 -5z m288 -61 c19 -12 18 -13 -6
-13 -24 0 -49 16 -49 32 0 9 28 0 55 -19z m-1067 8 c20 -6 49 -12 65 -15 42
-7 71 -18 78 -28 3 -5 18 -4 35 2 16 6 52 10 81 9 44 -2 55 1 71 21 l19 23 31
-23 c25 -19 35 -21 44 -12 19 19 38 14 38 -10 1 -25 32 -68 49 -68 15 0 14 33
-1 48 -6 6 -8 15 -4 19 4 4 11 2 15 -6 7 -11 12 -10 30 1 18 10 23 11 30 0 4
-7 15 -10 25 -6 11 4 22 0 30 -11 12 -16 15 -16 42 -2 16 9 25 16 19 17 -18 0
47 30 66 30 12 0 19 -7 19 -20 0 -21 15 -27 25 -10 3 5 29 16 58 25 50 15 53
15 69 -5 9 -11 14 -29 11 -40 -4 -14 -1 -20 8 -18 10 2 16 -11 19 -42 4 -39 8
-45 30 -49 25 -3 25 -3 6 18 -16 17 -17 25 -8 46 l11 25 26 -24 c29 -27 31
-36 9 -36 -14 0 -14 -3 -4 -15 14 -17 50 -20 50 -5 0 25 48 7 87 -33 23 -23
55 -55 70 -70 44 -44 63 -66 63 -75 0 -4 23 -16 51 -26 28 -11 67 -34 85 -53
19 -19 50 -41 70 -49 19 -8 38 -21 41 -30 3 -8 12 -13 19 -10 8 3 14 -1 14 -9
0 -8 3 -14 8 -14 17 4 92 -35 92 -48 0 -7 7 -16 15 -19 8 -4 15 -12 15 -19 0
-8 9 -17 21 -20 16 -5 19 -12 15 -31 -5 -17 -2 -24 9 -24 8 0 15 5 15 10 0 6
7 10 15 10 8 0 15 -4 15 -9 0 -4 20 -28 45 -53 34 -35 46 -55 51 -89 4 -24 15
-53 25 -64 23 -26 34 -93 38 -228 1 -10 6 -15 11 -12 6 3 10 -3 10 -14 0 -32
40 -131 53 -131 7 0 14 -17 15 -40 2 -22 4 -56 5 -75 1 -24 6 -34 15 -30 19 7
21 -5 31 -170 10 -149 4 -394 -20 -835 -6 -113 -15 -281 -19 -375 -13 -255
-38 -472 -70 -595 -5 -19 -21 -82 -35 -140 -30 -122 -62 -218 -82 -241 -7 -8
-13 -20 -13 -26 0 -6 -7 -16 -15 -23 -8 -7 -15 -21 -15 -31 0 -13 -5 -16 -16
-12 -14 5 -15 1 -9 -25 5 -25 3 -32 -9 -32 -16 0 -21 -16 -18 -53 1 -10 -5
-20 -13 -23 -8 -4 -15 -18 -15 -33 0 -15 -9 -34 -20 -44 -11 -9 -20 -25 -20
-36 0 -10 -7 -21 -15 -25 -8 -3 -18 -23 -21 -46 -4 -22 -11 -40 -17 -40 -5 0
-7 -15 -4 -35 3 -20 2 -33 -2 -31 -4 3 -13 1 -21 -5 -13 -7 -12 -9 3 -9 22 0
21 -19 -2 -47 -24 -28 -34 -29 -26 -3 4 11 2 20 -4 20 -6 0 -10 -15 -8 -34 1
-19 5 -32 10 -29 14 8 7 -19 -11 -45 -10 -15 -26 -45 -34 -67 -25 -63 -64
-126 -73 -118 -4 5 -5 0 -2 -9 4 -11 -6 -41 -25 -75 -18 -32 -30 -59 -27 -60
2 -2 -8 -16 -23 -32 -16 -16 -28 -34 -28 -40 0 -6 -4 -11 -9 -11 -5 0 -14 -13
-21 -30 -7 -16 -16 -30 -20 -30 -3 0 -22 -21 -40 -47 -43 -62 -73 -87 -137
-115 -29 -12 -53 -27 -53 -33 0 -5 -20 -18 -45 -28 -25 -11 -45 -23 -45 -27 0
-11 -72 -54 -85 -52 -6 1 -29 -7 -50 -18 -22 -11 -45 -20 -51 -20 -7 0 -14 -7
-18 -15 -3 -8 -12 -15 -21 -15 -8 0 -15 -7 -15 -15 0 -10 -10 -15 -34 -15 -19
0 -38 -5 -41 -10 -3 -6 -19 -10 -36 -10 -19 0 -29 -5 -29 -15 0 -8 -8 -15 -17
-15 -30 0 -83 -24 -83 -37 0 -12 -48 -19 -88 -14 -8 1 -20 -3 -28 -10 -10 -8
-18 -8 -27 -1 -9 8 -26 4 -62 -14 -39 -18 -66 -24 -122 -24 -40 0 -73 -4 -73
-9 0 -10 -56 -34 -81 -35 -9 -1 -26 -9 -37 -19 -13 -12 -22 -15 -27 -8 -4 7
-16 6 -36 -5 -17 -8 -37 -13 -45 -10 -8 3 -14 -1 -14 -9 0 -11 -11 -15 -40
-15 -22 0 -40 -4 -40 -9 0 -4 -26 -11 -57 -14 -132 -15 -159 -19 -178 -27 -50
-21 -181 -39 -300 -42 -93 -2 -255 8 -280 17 -129 45 -216 96 -286 166 -10 10
-28 19 -38 19 -11 0 -28 11 -39 25 -11 14 -26 25 -34 25 -8 0 -33 19 -56 43
-33 34 -42 50 -42 77 0 24 -6 39 -19 47 -11 7 -27 37 -35 68 -9 30 -25 60 -35
67 -11 6 -17 18 -14 25 3 7 -2 24 -11 38 -9 14 -21 58 -26 98 -5 39 -14 99
-21 132 -6 33 -8 80 -5 104 3 25 8 81 11 125 3 45 8 105 10 134 6 58 -26 294
-55 406 -23 92 -65 323 -82 451 -17 134 -17 604 1 705 12 72 95 417 127 530 9
30 19 69 24 85 20 71 56 165 64 165 4 0 5 -8 1 -17 -4 -10 -10 -31 -12 -48
l-4 -30 16 35 c9 19 17 40 18 45 1 6 5 12 9 15 4 3 9 15 11 26 1 11 13 37 25
58 12 20 22 41 22 47 0 5 7 9 15 9 8 0 15 5 15 10 0 15 68 83 105 106 17 10
36 27 43 36 7 10 26 25 41 33 26 13 30 13 43 -3 9 -9 13 -23 10 -31 -2 -8 3
-20 13 -27 10 -7 15 -20 12 -29 -5 -10 0 -15 13 -15 10 0 22 -4 25 -10 3 -5
18 -11 33 -11 17 -1 21 -3 10 -6 -20 -5 -24 -28 -8 -38 6 -4 17 -2 24 4 8 6
27 11 43 9 16 -1 34 1 41 6 7 4 12 2 12 -3 0 -6 -6 -11 -13 -11 -7 0 -21 -14
-31 -32 -19 -31 -19 -31 0 -23 10 5 30 8 44 8 65 -3 149 -13 185 -24 22 -6 55
-13 73 -16 18 -3 35 -9 38 -14 3 -5 20 -9 37 -9 18 0 70 -16 117 -35 47 -19
92 -35 100 -35 9 0 21 -5 26 -10 17 -17 61 35 67 78 3 20 9 52 13 70 7 37 -11
118 -34 144 -7 9 -11 22 -6 29 5 9 2 10 -9 6 -10 -4 -17 -1 -17 6 0 37 -234
222 -320 253 -8 3 -28 12 -45 19 -52 25 -89 37 -125 42 -19 2 -66 11 -105 20
-38 8 -81 15 -94 15 -13 0 -34 11 -46 24 -16 18 -25 21 -28 12 -13 -33 -11 92
2 146 14 56 22 61 74 46 46 -12 93 -46 204 -147 35 -31 79 -67 98 -81 19 -14
35 -29 35 -34 0 -4 5 -8 11 -8 6 0 23 -8 37 -19 15 -10 39 -21 55 -25 15 -3
27 -11 27 -16 0 -6 5 -10 10 -10 6 0 23 -12 39 -27 16 -16 39 -36 52 -46 13
-10 37 -27 52 -39 17 -12 26 -26 22 -35 -4 -11 -1 -13 10 -9 9 3 13 2 10 -3
-3 -5 5 -11 17 -13 16 -2 22 -9 20 -20 -2 -10 2 -18 8 -18 5 0 10 6 10 14 0 8
6 17 13 19 9 4 8 8 -3 16 -12 8 -12 13 -2 23 6 6 12 22 12 35 0 18 -6 23 -24
23 -19 0 -25 7 -34 40 -5 23 -6 40 -1 40 23 0 5 45 -31 77 -22 20 -40 42 -40
48 0 6 -12 18 -27 26 -15 8 -34 20 -43 27 -69 56 -97 78 -111 87 -53 33 -89
61 -89 70 0 6 -17 21 -37 35 -21 14 -58 44 -83 67 -24 23 -67 52 -93 65 -47
22 -50 22 -95 6 -47 -17 -72 -15 -39 3 9 6 17 16 17 23 0 7 8 20 18 30 11 9
28 34 38 56 10 22 22 40 26 40 11 0 64 84 72 113 3 15 13 27 21 27 8 0 15 6
15 14 0 20 63 116 77 116 17 0 43 41 43 68 0 18 4 22 18 18 12 -4 21 1 27 16
6 12 23 29 39 38 17 9 42 39 59 70 16 30 34 58 40 62 6 4 12 17 12 30 0 16 7
24 22 26 15 2 24 13 28 32 4 16 15 32 26 35 10 4 21 16 24 28 4 12 22 33 41
46 19 13 44 37 55 53 11 15 26 28 32 28 7 0 24 14 39 30 16 18 36 30 51 30 13
0 31 8 40 18 19 20 145 28 205 13z m662 -6 c0 -8 -4 -15 -10 -15 -5 0 -10 7
-10 15 0 8 5 15 10 15 6 0 10 -7 10 -15z m330 -25 c0 -5 -2 -10 -4 -10 -3 0
-8 5 -11 10 -3 6 -1 10 4 10 6 0 11 -4 11 -10z m137 -76 c-3 -3 -12 -4 -19 -1
-8 3 -5 6 6 6 11 1 17 -2 13 -5z m-3116 -587 c-8 -8 -11 -7 -11 4 0 20 13 34
18 19 3 -7 -1 -17 -7 -23z m-52 -58 c-22 -22 -43 -39 -45 -37 -5 6 67 78 78
78 5 0 -10 -18 -33 -41z m101 -14 c-7 -8 -17 -15 -23 -15 -6 0 -2 8 9 19 22
21 33 19 14 -4z m-40 -76 c-7 -11 -14 -18 -17 -15 -8 8 5 36 17 36 7 0 7 -6 0
-21z m-96 -31 c-4 -7 -16 -25 -26 -40 -13 -19 -15 -27 -6 -31 11 -3 10 -7 0
-19 -7 -9 -19 -40 -28 -69 -9 -30 -19 -58 -24 -64 -4 -5 -11 -28 -15 -50 -8
-45 -34 -100 -42 -91 -11 10 -33 -16 -33 -39 0 -12 -9 -34 -20 -48 -26 -33
-26 -60 0 -28 11 13 20 20 20 17 0 -18 -56 -199 -80 -261 -16 -38 -43 -114
-60 -167 -18 -54 -36 -98 -40 -98 -4 0 -10 -17 -13 -37 -10 -62 -79 -266 -100
-296 -10 -16 -16 -31 -13 -34 3 -4 6 0 6 7 0 7 3 11 6 7 12 -11 -20 -77 -37
-77 -21 0 -82 -68 -73 -81 3 -6 -2 -28 -11 -50 -10 -22 -15 -42 -12 -46 12
-11 46 41 52 81 7 35 40 84 51 73 3 -3 -11 -39 -31 -81 -19 -42 -38 -90 -41
-106 -4 -16 -13 -35 -20 -41 -8 -6 -14 -18 -14 -25 0 -8 -5 -14 -11 -14 -7 0
-8 7 -4 18 17 40 14 54 -4 17 -11 -22 -20 -56 -21 -75 -1 -27 -3 -31 -9 -16
-6 16 -10 13 -24 -22 -9 -24 -17 -51 -17 -62 0 -11 -11 -43 -24 -72 -34 -74
-43 -126 -23 -134 14 -5 14 -11 2 -51 -15 -50 -35 -79 -35 -51 0 9 6 18 13 21
6 2 9 8 4 12 -4 5 -14 0 -22 -11 -13 -17 -14 -15 -15 32 0 28 7 70 15 93 8 23
19 110 25 193 6 83 15 158 20 167 7 11 8 5 3 -19 -8 -49 7 -31 18 21 6 27 6
44 0 48 -12 8 3 91 18 101 13 8 41 103 40 135 0 11 -5 5 -10 -15 -15 -53 -19
-63 -24 -58 -7 7 22 150 39 194 8 22 29 91 45 154 42 160 41 158 57 164 8 3
14 15 14 26 0 12 30 85 66 162 36 77 63 147 60 154 -3 8 1 14 9 14 9 0 12 6 9
15 -10 26 56 112 76 100 6 -3 10 0 10 8 0 19 26 69 70 136 20 31 47 77 59 104
13 26 26 47 30 47 4 0 7 -16 7 -35 0 -19 -3 -30 -7 -24 -3 6 -11 -4 -18 -22
-6 -18 -18 -40 -25 -48 -8 -9 -21 -38 -29 -66 -23 -76 -47 -126 -57 -120 -11
7 -40 -51 -40 -81 0 -13 -6 -27 -14 -31 -26 -16 -47 -73 -26 -73 6 0 10 8 10
19 0 10 11 26 24 34 16 11 26 30 31 56 4 25 16 47 30 58 23 17 105 186 105
215 0 8 9 23 21 34 24 22 59 86 59 109 0 8 5 15 11 15 6 0 8 11 4 28 -4 21 0
36 17 58 29 38 58 60 42 32z m-91 -28 c-9 -16 -20 -30 -24 -30 -4 0 -38 -49
-75 -110 -38 -60 -73 -110 -77 -110 -5 0 1 13 12 29 12 16 21 31 21 34 0 9
132 202 144 209 18 12 18 10 -1 -22z m4227 -340 c0 -5 -5 -10 -11 -10 -5 0 -7
5 -4 10 3 6 8 10 11 10 2 0 4 -4 4 -10z m-2916 -301 c32 -6 84 -24 116 -40 32
-16 62 -29 67 -29 6 0 41 -27 78 -60 37 -33 75 -60 84 -61 11 0 12 -2 3 -6
-10 -4 -10 -8 0 -21 10 -12 10 -16 1 -19 -15 -5 -18 -33 -3 -33 5 0 20 -18 32
-40 13 -22 30 -40 37 -40 12 0 13 -2 2 -12 -10 -11 -15 -10 -24 3 -39 51 -58
70 -117 114 -76 59 -88 65 -202 122 -47 23 -89 46 -92 51 -3 5 -22 9 -42 10
-23 1 -44 9 -56 22 -10 11 -28 20 -40 20 -21 0 -21 0 -2 15 23 17 79 19 158 4z
m19 -159 c11 0 28 -7 38 -16 17 -15 17 -18 -6 -53 -29 -43 -35 -106 -15 -173
8 -26 12 -50 9 -52 -14 -14 -87 27 -136 77 -42 43 -57 66 -63 98 -10 52 4 97
37 125 23 20 28 21 71 8 25 -8 54 -14 65 -14z m3140 -64 c1 -25 -1 -46 -5 -46
-5 0 -8 23 -8 52 0 63 11 58 13 -6z m-3503 14 c0 -5 -4 -10 -10 -10 -5 0 -10
5 -10 10 0 6 5 10 10 10 6 0 10 -4 10 -10z m555 -76 c0 -10 -8 -20 -18 -22
-22 -4 -35 27 -16 39 20 12 34 5 34 -17z m2972 -190 c-3 -86 -1 -151 4 -148 5
3 9 4 9 2 16 -110 9 -178 -20 -178 -24 0 -37 -20 -20 -30 19 -12 19 -256 0
-252 -9 2 -11 -6 -6 -29 3 -17 6 -40 6 -51 0 -17 3 -18 15 -8 12 10 16 9 21
-3 11 -29 -11 -111 -27 -101 -5 3 -9 1 -9 -5 0 -5 6 -11 13 -14 9 -3 9 -8 1
-16 -24 -25 -42 49 -52 204 -11 173 -6 280 15 312 9 13 13 33 9 47 -3 13 -1
48 4 76 6 32 6 57 1 64 -9 11 -15 84 -12 164 1 47 17 57 24 15 3 -16 3 7 1 51
-3 68 -2 77 11 66 13 -11 15 -39 12 -166z m-2708 39 c17 -33 18 -123 1 -123
-5 0 -10 20 -10 44 0 25 -4 56 -10 70 -11 30 4 36 19 9z m-58 -29 c11 -32 13
-30 -33 -38 -45 -8 -50 5 -16 41 28 30 36 29 49 -3z m-1957 -206 c-3 -5 -10
-38 -15 -73 -6 -46 -23 -91 -55 -153 -25 -48 -48 -89 -50 -91 -5 -5 8 33 60
184 25 72 46 139 46 150 0 16 2 17 9 5 6 -8 7 -18 5 -22z m-89 -78 c-9 -28
-19 -50 -21 -48 -2 2 4 27 13 56 9 28 19 50 21 47 2 -2 -4 -27 -13 -55z m-39
-145 c-6 -24 -14 -41 -18 -37 -8 8 11 82 22 82 3 0 2 -20 -4 -45z m-68 -200
c-15 -47 -23 -63 -26 -48 -2 12 3 37 11 55 8 18 18 42 21 52 4 10 8 17 11 14
2 -2 -5 -35 -17 -73z m4928 -52 c-10 -10 -19 5 -10 18 6 11 8 11 12 0 2 -7 1
-15 -2 -18z m-5041 -134 c-9 -24 -24 -73 -34 -109 -10 -36 -23 -74 -29 -85 -6
-11 -13 -28 -16 -37 -3 -10 -10 -18 -17 -18 -7 0 -8 7 -4 18 4 9 11 31 15 47
4 17 17 53 29 80 12 28 29 70 37 95 24 71 26 76 31 64 2 -6 -3 -31 -12 -55z
m4966 -79 c1 -25 -4 -64 -10 -88 -9 -31 -9 -47 -1 -56 7 -10 5 -25 -10 -57
l-20 -44 1 70 c2 94 20 238 30 228 4 -4 9 -28 10 -53z m-5121 -184 c0 -3 -4
-8 -10 -11 -5 -3 -10 -1 -10 4 0 6 5 11 10 11 6 0 10 -2 10 -4z m25 -67 c-14
-30 -25 -47 -25 -38 0 18 24 80 36 92 17 16 13 -3 -11 -54z m5047 -34 c-5 -31
-22 -44 -22 -18 0 15 17 43 26 43 1 0 -1 -11 -4 -25z m-5502 -445 c0 -6 -60
-30 -75 -30 -5 0 7 14 25 30 25 22 36 27 42 18 4 -7 8 -15 8 -18z m-292 -382
c-2 -12 -16 -29 -33 -38 -16 -9 -35 -27 -41 -39 -19 -38 -34 -48 -34 -24 0 12
5 25 10 28 6 3 10 15 10 25 0 27 40 68 68 69 19 1 23 -4 20 -21z m57 2 c-10
-11 -23 -20 -28 -20 -6 0 0 9 13 20 13 11 25 20 28 20 3 0 -3 -9 -13 -20z m30
-60 c-3 -5 -14 -10 -23 -10 -15 0 -15 2 -2 10 20 13 33 13 25 0z m-121 -37
c-5 -20 -32 -39 -40 -30 -4 4 39 56 43 53 1 -1 0 -11 -3 -23z m61 -3 c-10 -11
-23 -20 -28 -20 -6 0 0 9 13 20 13 11 25 20 28 20 3 0 -3 -9 -13 -20z m-118
-76 c-3 -3 -12 -4 -19 -1 -8 3 -5 6 6 6 11 1 17 -2 13 -5z m-90 -119 c-30 -26
-47 -32 -47 -15 0 6 6 10 14 10 7 0 19 7 26 15 7 8 18 15 24 15 6 0 -2 -12
-17 -25z m-1107 -650 c10 -12 9 -16 -4 -21 -16 -6 -50 19 -39 30 11 10 30 7
43 -9z m3201 -138 c-10 -9 -11 -8 -5 6 3 10 9 15 12 12 3 -3 0 -11 -7 -18z
m69 -104 c0 -69 -14 -83 -30 -31 -17 56 -18 64 -2 61 6 -2 12 2 12 7 0 6 5 10
10 10 6 0 10 -21 10 -47z m90 -73 c0 -11 -7 -20 -15 -20 -15 0 -21 21 -8 33
12 13 23 7 23 -13z m-119 -63 c-6 -6 -11 -19 -11 -29 0 -10 -4 -18 -10 -18
-13 0 -13 2 7 52 12 30 19 38 21 24 2 -10 -1 -23 -7 -29z m159 -33 c12 -22 12
-27 0 -34 -22 -14 -27 -12 -34 13 -14 52 10 67 34 21z m-3590 -14 c0 -5 -7
-10 -15 -10 -8 0 -15 5 -15 10 0 6 7 10 15 10 8 0 15 -4 15 -10z m461 -30 c-7
-3 -9 -14 -5 -23 4 -11 -2 -24 -17 -37 -13 -10 -18 -19 -11 -20 14 0 17 -20 3
-20 -5 0 -17 7 -25 16 -9 8 -20 13 -26 9 -5 -3 -1 -14 10 -25 20 -20 27 -41
13 -39 -25 4 -34 -3 -28 -21 5 -16 2 -20 -14 -20 -16 0 -21 -6 -21 -27 0 -31
-6 -41 -34 -63 -18 -14 -19 -13 -14 8 4 15 2 22 -7 22 -8 0 -13 -10 -12 -24 3
-39 -17 -31 -26 10 -4 23 -3 42 3 48 13 13 13 46 0 46 -5 0 -10 -9 -10 -20 0
-11 -5 -20 -10 -20 -11 0 -8 54 4 81 4 10 15 15 25 12 12 -3 24 8 41 41 31 61
41 68 94 68 25 0 48 4 52 9 3 5 10 6 16 3 7 -4 6 -9 -1 -14z m3059 -52 c0 -34
-4 -58 -8 -52 -8 9 -4 114 4 114 2 0 4 -28 4 -62z m87 5 c19 -24 24 -26 33
-13 8 13 10 13 10 -1 0 -9 -7 -19 -15 -23 -11 -4 -13 -14 -8 -38 9 -48 24 -64
39 -44 10 14 12 12 17 -12 7 -36 -2 -74 -16 -65 -7 4 -8 -2 -3 -18 4 -13 8
-32 7 -41 0 -10 7 -18 15 -18 10 0 14 -14 15 -52 0 -29 3 -47 6 -40 2 6 8 12
12 12 6 0 8 -56 9 -235 1 -38 1 -80 1 -93 1 -13 -6 -39 -14 -59 -19 -44 -19
-53 -1 -53 15 0 46 37 46 55 0 5 -5 3 -11 -5 -8 -11 -9 -9 -3 10 4 14 8 46 8
72 1 25 4 41 8 35 5 -8 8 -6 8 5 0 9 3 23 6 32 4 11 1 16 -10 16 -18 0 -20 12
-7 38 30 55 41 90 41 134 0 26 5 48 10 48 6 0 10 -23 9 -55 -1 -31 3 -61 9
-67 14 -14 16 -118 3 -118 -5 0 -11 -10 -14 -22 -2 -13 -8 -31 -12 -40 -4 -10
-3 -18 3 -18 5 0 13 10 16 23 6 19 9 15 22 -26 11 -37 12 -52 4 -62 -13 -16
-4 -39 11 -30 16 11 22 -25 7 -43 -8 -9 -32 -57 -52 -105 -29 -68 -36 -95 -30
-115 24 -83 -21 -148 -119 -172 -18 -4 -40 -11 -49 -15 -16 -6 -18 -1 -19 41
-1 47 -2 47 -8 14 -12 -59 -18 -63 -57 -34 -25 19 -33 32 -29 45 7 20 -19 28
-30 9 -3 -5 -11 -10 -17 -10 -6 0 -1 11 11 24 19 20 21 27 10 44 -7 11 -19 18
-26 15 -7 -3 -13 0 -13 6 0 5 -9 15 -20 21 -20 11 -20 9 -18 -53 3 -55 5 -63
21 -59 20 5 24 -27 5 -47 -11 -10 -10 -15 2 -24 23 -18 53 -68 44 -75 -4 -4
-9 -1 -11 6 -5 14 -23 17 -23 4 0 -5 9 -13 20 -18 20 -9 20 -9 -1 -22 -20 -13
-21 -12 -15 3 5 15 4 16 -8 6 -10 -8 -27 -10 -47 -6 -25 6 -30 4 -24 -6 5 -8
-1 -6 -13 4 -19 18 -72 114 -72 133 0 5 -14 36 -30 68 -17 32 -30 64 -30 71 0
7 -7 26 -15 41 -8 16 -15 37 -15 47 0 9 -7 17 -16 17 -12 0 -15 -6 -10 -22 3
-13 9 -42 12 -65 4 -24 13 -48 20 -54 8 -6 14 -18 14 -25 0 -13 8 -31 31 -74
31 -56 50 -104 45 -116 -3 -8 -2 -12 3 -9 5 3 20 -13 32 -35 13 -22 26 -40 31
-40 4 0 8 -18 8 -40 0 -29 -4 -40 -15 -40 -19 0 -20 -36 -1 -47 7 -4 16 -15
19 -23 4 -8 4 0 1 18 -5 27 -3 32 15 32 21 0 51 -44 51 -75 0 -8 4 -15 8 -15
4 0 7 -26 6 -58 -1 -71 -23 -102 -70 -102 -44 0 -94 -19 -94 -36 0 -20 -4 -18
-42 16 -36 34 -52 24 -19 -12 18 -18 19 -24 8 -35 -10 -10 -20 -11 -39 -4 -25
9 -26 12 -17 53 6 23 15 46 22 50 6 4 8 10 5 14 -11 11 -35 -20 -43 -55 -4
-18 -13 -35 -21 -38 -8 -3 -14 -10 -14 -17 0 -6 -16 -12 -35 -13 -26 -2 -35 1
-35 12 0 8 7 15 15 15 8 0 15 6 15 14 0 8 8 21 19 28 10 7 21 24 25 38 4 14 4
20 -1 13 -4 -6 -19 -13 -33 -16 -14 -2 -19 -2 -12 0 6 3 12 8 12 12 0 15 -39
43 -49 36 -7 -3 -11 2 -11 14 0 12 7 21 15 21 18 0 19 21 4 127 -11 82 -22
105 -44 97 -7 -3 -16 -1 -20 5 -3 6 2 11 12 11 21 0 43 42 43 82 0 18 -5 28
-15 28 -18 0 -18 1 -5 35 9 23 7 28 -10 32 -24 6 -26 28 -4 37 11 4 14 14 10
36 -3 16 -9 43 -12 59 -3 17 -13 31 -25 34 -13 4 -19 13 -18 34 l1 28 8 -25
c7 -20 8 -16 9 23 1 26 -6 64 -14 84 -17 41 -19 53 -6 53 5 0 14 -15 21 -32
31 -85 44 -108 53 -99 5 5 5 17 -2 29 -14 26 -14 35 -1 27 6 -3 10 3 10 13 0
11 -7 22 -15 26 -19 7 -19 30 0 46 11 9 12 17 4 31 -10 20 0 50 28 77 19 19
29 9 48 -48 9 -28 21 -50 26 -50 11 0 12 36 0 58 -13 27 -22 114 -11 107 6 -4
10 10 10 34 0 32 4 41 18 41 17 0 52 50 52 76 0 15 10 30 44 64 20 20 20 20
-7 20 -15 0 -30 -6 -33 -14 -3 -8 -15 -11 -30 -8 -24 4 -26 8 -22 53 2 34 -1
49 -9 49 -8 0 -13 -14 -13 -35 0 -22 -8 -43 -20 -55 -11 -11 -20 -31 -20 -45
0 -39 -25 -30 -27 9 -1 26 2 33 13 29 9 -3 14 2 14 15 0 11 -6 22 -12 25 -10
4 -10 7 0 18 6 7 12 25 12 40 0 15 7 34 15 43 8 8 15 20 15 26 0 20 25 4 28
-18 4 -28 22 -29 22 -1 0 13 8 23 21 26 11 3 18 11 15 18 -6 15 24 45 45 45 8
0 20 -5 27 -12 14 -14 16 -48 2 -48 -5 0 -13 -18 -16 -40 -4 -24 -12 -40 -20
-40 -15 0 -18 -12 -7 -24 4 -3 16 4 27 17 12 13 29 26 38 30 11 4 15 12 12 22
-4 11 0 15 16 15 35 0 46 21 53 95 7 89 14 108 38 102 12 -3 19 0 19 9 0 22
41 17 47 -6 3 -11 9 -20 14 -20 5 0 9 -18 9 -40 0 -33 -3 -40 -20 -40 -13 0
-20 -7 -20 -20 0 -24 15 -26 24 -4 5 12 9 14 20 5 10 -8 17 -6 32 10 15 17 16
22 4 29 -8 5 -18 6 -22 4 -4 -3 -8 -1 -8 5 0 5 5 11 11 13 6 2 13 19 15 38 2
18 6 35 9 38 9 9 23 -45 18 -71 -5 -25 -3 -27 30 -27 41 0 57 15 27 25 -24 8
-55 61 -40 70 15 9 12 19 -10 45 -21 24 -25 42 -13 53 11 11 16 8 40 -20z
m103 -37 c0 -11 -19 -15 -25 -6 -3 5 1 10 9 10 9 0 16 -2 16 -4z m4050 -52 c0
-8 -5 -12 -10 -9 -6 4 -8 11 -5 16 9 14 15 11 15 -7z m-4465 -14 c3 -5 1 -10
-4 -10 -6 0 -11 5 -11 10 0 6 2 10 4 10 3 0 8 -4 11 -10z m4292 -17 c-15 -16
-17 -16 -17 -1 0 9 6 18 13 21 20 7 22 -2 4 -20z m-4289 -35 c-9 -7 -18 -20
-21 -28 -4 -10 -6 -8 -6 6 -1 24 7 34 28 34 13 0 13 -2 -1 -12z m59 -60 c-3
-8 -6 -5 -6 6 -1 11 2 17 5 13 3 -3 4 -12 1 -19z m-203 -18 c-15 -14 -54 -22
-54 -11 0 13 54 39 59 28 2 -5 -1 -12 -5 -17z m615 -60 c-7 -5 -9 -18 -6 -30
3 -12 3 -28 0 -36 -9 -25 -33 11 -33 50 0 29 4 36 20 36 14 0 20 7 21 23 2 16
3 15 6 -7 3 -16 -1 -32 -8 -36z m-682 24 c-3 -3 -12 -4 -19 -1 -8 3 -5 6 6 6
11 1 17 -2 13 -5z m-3247 -134 c0 -5 -4 -10 -10 -10 -5 0 -10 5 -10 10 0 6 5
10 10 10 6 0 10 -4 10 -10z m3911 -27 c-8 -15 -10 -15 -11 -2 0 17 10 32 18
25 2 -3 -1 -13 -7 -23z m-631 -64 c0 -5 5 -7 10 -4 17 11 32 -5 19 -21 -6 -7
-14 -12 -18 -9 -4 2 -14 -11 -21 -30 -14 -35 -30 -47 -30 -21 0 7 7 19 16 27
11 9 14 22 10 41 -3 15 -1 28 4 28 6 0 10 -5 10 -11z m-73 -88 c-3 -16 1 -33
10 -43 9 -10 13 -25 9 -34 -6 -14 -10 -11 -24 17 -11 21 -15 39 -9 46 5 7 6
22 2 34 -5 15 -4 19 5 14 7 -4 10 -19 7 -34z m4318 -21 c14 -15 15 -20 4 -20
-8 0 -20 9 -27 20 -7 11 -8 20 -4 20 5 0 17 -9 27 -20z m-3468 -82 c-3 -7 -5
-2 -5 12 0 14 2 19 5 13 2 -7 2 -19 0 -25z m-4472 -38 c-5 -8 -11 -8 -17 -2
-6 6 -7 16 -3 22 5 8 11 8 17 2 6 -6 7 -16 3 -22z m3525 -71 c0 -6 -4 -7 -10
-4 -5 3 -10 11 -10 16 0 6 5 7 10 4 6 -3 10 -11 10 -16z m913 -151 c-3 -18
-12 -49 -19 -68 -10 -28 -13 -30 -13 -12 -1 33 20 112 30 112 5 0 6 -15 2 -32z
m2770 -213 c-3 -9 -8 -14 -10 -11 -3 3 -2 9 2 15 9 16 15 13 8 -4z m-2223
-305 c0 -5 -7 -10 -16 -10 -8 0 -12 5 -9 10 3 6 10 10 16 10 5 0 9 -4 9 -10z
m-1373 -97 c-3 -10 -5 -4 -5 12 0 17 2 24 5 18 2 -7 2 -21 0 -30z m-12 -299
c-23 -23 -32 -8 -9 17 10 11 20 16 22 10 2 -6 -4 -18 -13 -27z m-45 -18 c0 -3
-4 -8 -10 -11 -5 -3 -10 -1 -10 4 0 6 5 11 10 11 6 0 10 -2 10 -4z m348 -55
c16 -10 12 -43 -5 -49 -7 -2 -13 4 -13 13 0 14 -9 16 -55 13 -38 -2 -55 1 -55
9 0 18 104 30 128 14z m-408 -29 c0 -4 -9 -13 -20 -20 -22 -13 -27 -3 -8 16
14 14 28 16 28 4z m410 -42 c16 0 30 5 30 11 0 7 10 -1 22 -17 13 -16 29 -34
37 -40 8 -6 11 -18 8 -28 -6 -15 -11 -14 -42 9 -25 20 -50 28 -94 32 -51 5
-68 2 -120 -23 -36 -16 -58 -31 -52 -37 5 -5 3 -21 -6 -38 -17 -35 -24 -33
-25 8 -1 33 29 102 52 120 8 6 38 15 65 18 28 4 57 11 65 15 10 6 17 3 22 -11
5 -13 17 -19 38 -19z m-526 -94 c-3 -9 -10 -16 -15 -16 -5 0 -4 9 3 20 14 22
21 20 12 -4z m480 1 c16 -24 1 -31 -28 -12 -14 10 -32 15 -40 12 -10 -4 -13
-1 -10 7 7 18 66 13 78 -7z m56 -57 c0 -5 -4 -10 -10 -10 -5 0 -10 5 -10 10 0
6 5 10 10 10 6 0 10 -4 10 -10z m-613 -32 c-3 -7 -5 -2 -5 12 0 14 2 19 5 13
2 -7 2 -19 0 -25z m580 -14 c-3 -3 -12 -4 -19 -1 -8 3 -5 6 6 6 11 1 17 -2 13
-5z m-301 -121 c-10 -10 -19 5 -10 18 6 11 8 11 12 0 2 -7 1 -15 -2 -18z m237
-34 c-8 -8 -16 -8 -30 1 -15 10 -15 11 -1 6 10 -3 20 -1 24 5 3 6 9 8 12 4 3
-3 1 -10 -5 -16z"/>
<path d="M7030 8295 c8 -10 25 -15 44 -13 46 5 37 23 -13 26 -40 3 -43 2 -31
-13z"/>
<path d="M7055 8260 c-7 -11 42 -37 51 -27 4 3 4 13 1 22 -7 17 -42 21 -52 5z"/>
<path d="M6785 8239 c-3 -4 6 -11 20 -15 34 -9 40 -2 9 13 -13 6 -26 7 -29 2z"/>
<path d="M6685 6480 c-22 -10 -36 -19 -31 -19 11 -1 -34 -41 -46 -41 -4 0 -8
-13 -8 -30 0 -26 4 -30 28 -30 19 0 30 -7 37 -22 8 -18 17 -23 45 -21 19 1 51
-3 70 -8 20 -5 96 -11 170 -14 74 -3 148 -7 165 -10 16 -3 85 -12 153 -20 68
-7 129 -18 135 -23 12 -9 120 -25 245 -37 52 -5 62 -3 62 10 0 8 -7 15 -16 15
-8 0 -12 5 -9 10 3 6 22 10 41 10 30 0 34 -3 34 -25 0 -14 -5 -25 -11 -25 -5
0 -7 -5 -4 -10 3 -6 17 -7 31 -4 20 5 24 2 24 -15 0 -14 6 -21 20 -21 11 0 20
-4 20 -9 0 -5 12 -11 28 -14 15 -3 41 -17 57 -32 20 -17 37 -24 52 -20 17 4
20 1 16 -14 -6 -25 33 -61 68 -61 15 0 34 -6 41 -14 8 -7 24 -17 36 -20 12 -4
25 -18 28 -32 7 -27 31 -31 60 -9 17 13 17 14 1 15 -9 0 -22 10 -28 23 -5 12
-30 30 -55 41 -24 10 -44 24 -44 31 0 8 -9 17 -20 20 -11 3 -20 13 -20 20 0 8
-19 24 -42 36 -23 12 -48 28 -56 35 -7 8 -20 14 -28 14 -8 0 -14 4 -14 9 0 12
-84 61 -103 61 -9 0 -17 -6 -20 -12 -4 -10 -7 -10 -18 0 -11 10 -11 12 0 12 8
0 -13 26 -45 59 -58 57 -76 65 -157 75 -15 1 -33 8 -39 14 -14 14 -62 16 -53
3 3 -6 -4 -15 -15 -21 -16 -9 -25 -6 -47 15 -15 14 -31 25 -35 25 -3 0 -14 8
-24 18 -14 14 -37 17 -124 18 -58 1 -128 6 -155 12 -83 18 -157 31 -220 37
-33 3 -78 8 -100 10 -25 2 -55 -3 -80 -15z m890 -190 c16 0 44 -9 60 -21 l30
-20 -75 5 c-89 5 -140 15 -140 27 0 5 14 8 32 7 19 -2 33 3 36 11 3 9 7 10 15
2 6 -6 25 -11 42 -11z m283 -126 c-10 -10 -28 6 -28 24 0 15 1 15 17 -1 9 -9
14 -19 11 -23z"/>
<path d="M7417 6413 c-11 -10 -8 -23 4 -23 6 0 17 7 25 15 14 13 13 15 -4 15
-10 0 -22 -3 -25 -7z"/>
<path d="M4622 6154 c-7 -8 -10 -19 -6 -26 5 -7 10 -3 16 12 10 28 7 33 -10
14z"/>
<path d="M6745 6130 c-22 -5 -53 -13 -68 -19 -16 -6 -39 -11 -53 -11 -13 0
-29 -9 -36 -19 -9 -14 -19 -18 -38 -14 -20 3 -34 -2 -55 -21 -15 -14 -34 -26
-41 -26 -18 0 -37 -37 -24 -45 5 -3 10 -2 10 3 0 15 54 22 62 9 6 -9 13 -9 28
1 11 7 25 10 29 7 5 -3 11 2 15 10 3 8 14 15 24 15 10 0 22 3 26 8 4 4 12 8
17 8 5 1 13 2 19 3 5 0 17 10 28 21 10 11 48 26 87 36 102 23 227 10 330 -35
11 -5 62 -26 113 -46 92 -37 222 -116 265 -162 12 -12 28 -23 35 -23 6 0 12
-5 12 -10 0 -6 11 -15 25 -20 14 -5 25 -16 25 -25 0 -31 126 -125 167 -125 19
0 16 10 -20 62 -33 48 -112 121 -203 189 -116 85 -404 204 -556 229 -72 11
-165 11 -223 0z"/>
<path d="M4590 6110 c0 -11 5 -20 10 -20 6 0 10 9 10 20 0 11 -4 20 -10 20 -5
0 -10 -9 -10 -20z"/>
<path d="M6953 5986 c-7 -12 -23 -13 -98 -4 -93 11 -92 11 -276 -33 -35 -9
-108 -57 -109 -72 0 -4 20 -16 45 -27 24 -10 69 -35 100 -55 30 -19 59 -35 64
-35 5 0 11 -9 14 -20 3 -13 14 -20 30 -20 14 0 29 -5 33 -11 4 -8 0 -9 -15 -4
-15 5 -21 2 -21 -9 0 -9 7 -16 15 -16 8 0 15 -7 15 -15 0 -18 60 -21 78 -3 9
9 18 9 37 0 14 -6 25 -8 25 -3 0 5 -15 16 -34 25 -34 16 -116 88 -116 101 0 4
-9 14 -20 23 -11 10 -21 32 -22 51 -3 29 2 38 32 58 29 20 43 23 95 19 33 -3
74 -5 91 -5 16 -1 39 -7 49 -15 19 -14 19 -15 -4 -59 -29 -57 -26 -128 10
-201 22 -45 30 -52 84 -73 33 -13 89 -26 125 -29 57 -5 68 -3 87 15 12 12 25
21 29 21 12 0 64 59 64 74 0 19 30 42 38 30 4 -6 24 -20 45 -33 58 -36 52 -46
-55 -88 -32 -12 -48 -25 -50 -38 -2 -12 -12 -21 -25 -23 -27 -4 -30 13 -5 27
15 9 15 10 -5 11 -25 0 -36 -14 -41 -49 -6 -43 87 -97 101 -58 3 9 9 9 27 -1
19 -11 24 -11 38 6 14 15 21 17 34 8 13 -8 23 -8 38 2 11 6 37 12 58 12 21 0
42 4 48 8 5 5 28 15 52 22 24 7 46 18 49 23 3 5 -8 20 -26 34 -24 19 -30 30
-25 49 10 38 -1 57 -24 43 -22 -14 -23 -13 -104 64 -28 26 -68 57 -90 68 -22
11 -43 29 -45 40 -4 14 -14 19 -38 19 -19 0 -39 8 -50 20 -19 22 -82 53 -148
74 -11 3 -21 15 -24 26 -5 17 -7 18 -21 4 -12 -12 -17 -13 -23 -3 -4 7 -5 17
-3 21 3 4 1 8 -3 8 -5 0 -14 -9 -20 -20 -11 -16 -17 -18 -44 -8 -17 6 -33 17
-36 24 -7 18 -20 18 -30 0z m-325 -113 c6 -19 -25 -16 -32 3 -4 11 -1 14 11
12 9 -2 18 -9 21 -15z m516 -39 c23 -9 20 -31 -6 -37 -27 -8 -38 -1 -38 24 0
19 15 24 44 13z"/>
<path d="M8110 5930 c0 -5 7 -10 15 -10 8 0 15 5 15 10 0 6 -7 10 -15 10 -8 0
-15 -4 -15 -10z"/>
<path d="M6857 5613 c-4 -3 -7 -15 -7 -25 0 -14 8 -18 40 -18 45 0 51 11 18
34 -24 17 -41 20 -51 9z"/>
<path d="M6964 5555 c-10 -26 3 -42 34 -43 l30 -1 -16 30 c-18 31 -39 38 -48
14z"/>
<path d="M7050 5524 c0 -21 19 -54 31 -54 19 0 21 31 4 50 -22 24 -35 26 -35
4z"/>
<path d="M7120 5490 c0 -16 5 -19 30 -13 26 5 30 3 30 -16 0 -29 26 -37 50
-16 18 16 18 19 3 41 -13 20 -24 24 -64 24 -42 0 -49 -3 -49 -20z"/>
<path d="M8181 5124 c0 -11 3 -14 6 -6 3 7 2 16 -1 19 -3 4 -6 -2 -5 -13z"/>
<path d="M5463 4753 c9 -2 23 -2 30 0 6 3 -1 5 -18 5 -16 0 -22 -2 -12 -5z"/>
<path d="M5700 4730 c0 -13 50 -33 59 -24 7 7 -28 34 -46 34 -7 0 -13 -5 -13
-10z"/>
<path d="M4657 4686 c-6 -16 11 -36 30 -36 7 0 18 -11 25 -25 6 -13 14 -22 18
-20 5 3 13 -9 19 -25 5 -17 17 -30 25 -30 13 0 16 -13 16 -66 0 -36 7 -143 16
-237 12 -124 13 -172 5 -175 -14 -5 -14 -54 1 -104 7 -24 16 -37 24 -34 7 3
24 -13 38 -34 14 -22 37 -42 51 -46 14 -3 48 -28 77 -55 29 -27 62 -49 74 -49
29 0 84 -20 84 -31 0 -5 3 -8 8 -8 4 1 9 0 12 -1 3 -1 12 -3 20 -6 8 -2 40
-10 70 -19 66 -18 106 -19 114 -2 5 10 7 10 12 0 6 -14 44 -18 44 -4 0 4 28
11 62 15 35 3 69 13 80 23 11 9 18 11 18 5 0 -8 20 -12 55 -12 48 0 55 2 55
20 0 11 5 20 10 20 6 0 10 -9 10 -20 0 -18 6 -20 55 -18 30 2 55 5 55 8 0 11
61 32 76 26 9 -3 31 1 50 10 26 13 38 14 47 5 16 -16 22 -14 35 15 11 23 17
25 70 24 31 0 69 2 85 6 22 5 27 3 27 -11 0 -10 8 -24 18 -31 21 -17 69 -18
74 -2 3 9 6 9 12 0 4 -7 2 -12 -3 -12 -6 0 -11 -4 -11 -10 0 -5 6 -10 14 -10
8 0 17 -8 20 -17 9 -21 22 -7 30 32 7 36 -27 80 -68 91 -15 3 -29 10 -32 15
-3 5 -15 9 -28 9 -12 0 -27 5 -34 12 -8 8 -58 12 -144 14 -103 1 -148 6 -198
23 -66 21 -139 54 -149 68 -3 5 -27 19 -54 32 -26 13 -59 35 -73 48 -51 47
-215 138 -239 132 -6 -1 -17 1 -25 4 -8 3 -34 11 -57 17 -26 6 -43 17 -43 25
0 8 -15 22 -32 31 -18 9 -43 29 -56 45 -13 16 -29 29 -36 29 -7 0 -21 9 -30
19 -10 11 -32 23 -49 27 -16 3 -55 19 -86 35 -30 16 -61 29 -68 29 -6 0 -28
20 -47 44 -27 32 -36 52 -36 80 0 29 -8 45 -37 75 -40 41 -97 61 -106 37z
m667 -759 c-3 -9 -12 -17 -20 -17 -17 0 -17 5 -3 32 13 24 33 10 23 -15z m81
2 c4 -6 13 -8 21 -5 8 3 14 2 14 -3 0 -13 -33 -38 -57 -44 -19 -4 -23 -1 -23
17 0 35 31 59 45 35z m95 -14 c7 -8 16 -12 21 -9 5 3 9 -9 9 -25 0 -51 -45
-37 -56 17 -7 34 5 42 26 17z m118 -42 c-2 -11 -12 -18 -26 -18 -12 0 -21 5
-19 10 1 6 8 9 15 9 6 -1 12 2 12 7 0 5 5 9 11 9 6 0 9 -8 7 -17z m69 4 c12 5
11 1 -3 -15 -20 -24 -34 -20 -34 11 0 15 3 18 11 10 6 -6 18 -9 26 -6z m163
-27 c0 -5 -5 -10 -11 -10 -5 0 -7 5 -4 10 3 6 8 10 11 10 2 0 4 -4 4 -10z
m-45 -10 c-3 -5 -15 -10 -26 -10 -10 0 -19 5 -19 10 0 6 12 10 26 10 14 0 23
-4 19 -10z"/>
<path d="M6046 4674 c-4 -10 -1 -14 6 -12 15 5 23 28 10 28 -5 0 -13 -7 -16
-16z"/>
<path d="M8030 4588 c0 -49 5 -47 14 5 4 23 3 37 -4 37 -5 0 -10 -19 -10 -42z"/>
<path d="M4711 3044 c0 -11 3 -14 6 -6 3 7 2 16 -1 19 -3 4 -6 -2 -5 -13z"/>
<path d="M3960 7201 c-13 -25 -13 -54 0 -46 6 3 17 19 25 36 14 26 14 29 1 29
-9 0 -20 -9 -26 -19z"/>
<path d="M3847 7103 c-4 -3 -7 -13 -7 -22 1 -13 3 -13 11 2 11 19 8 33 -4 20z"/>
<path d="M3726 6805 c-3 -8 -1 -15 4 -15 6 0 10 7 10 15 0 8 -2 15 -4 15 -2 0
-6 -7 -10 -15z"/>
<path d="M3798 6745 c-4 -52 7 -47 17 8 5 23 3 37 -3 37 -5 0 -12 -20 -14 -45z"/>
<path d="M3704 6758 c-54 -87 -107 -228 -71 -188 7 8 21 35 31 60 10 25 27 64
39 87 12 23 18 45 15 48 -3 4 -10 0 -14 -7z"/>
<path d="M3771 6649 c-6 -18 -11 -37 -10 -43 0 -6 7 7 15 28 8 22 12 41 10 43
-2 2 -9 -10 -15 -28z"/>
<path d="M3730 6535 c0 -8 5 -15 10 -15 6 0 10 7 10 15 0 8 -4 15 -10 15 -5 0
-10 -7 -10 -15z"/>
<path d="M3547 6470 c-5 -14 -20 -63 -34 -110 -14 -47 -34 -110 -44 -141 -23
-68 -23 -73 -3 -65 10 4 13 2 8 -6 -8 -13 -12 -39 -20 -138 -4 -35 -12 -74
-20 -84 -18 -27 -18 -42 1 -26 13 10 15 9 15 -9 0 -22 -23 -54 -33 -45 -2 3
-7 -2 -10 -10 -4 -9 -2 -18 3 -21 6 -4 10 -1 10 4 0 6 4 11 8 11 4 0 7 -17 5
-37 -2 -33 0 -31 13 17 9 30 18 72 21 93 3 20 9 40 15 43 5 3 4 11 -3 20 -6 8
-9 31 -6 56 12 106 36 256 45 278 29 75 43 132 40 162 -3 32 -4 32 -11 8z"/>
<path d="M3676 6355 c-3 -9 -6 -22 -5 -28 0 -7 5 -1 10 12 5 13 8 26 5 28 -2
2 -6 -3 -10 -12z"/>
<path d="M3622 6228 c-14 -14 -16 -28 -3 -28 9 0 24 30 18 36 -2 2 -9 -2 -15
-8z"/>
<path d="M3571 6170 c-1 -3 -5 -25 -7 -50 -4 -34 -2 -42 6 -34 6 6 10 29 7 50
-2 22 -5 37 -6 34z"/>
<path d="M3340 5399 c0 -11 5 -17 10 -14 6 3 10 13 10 21 0 8 -4 14 -10 14 -5
0 -10 -9 -10 -21z"/>
<path d="M8501 6098 c-1 -16 4 -28 9 -28 12 0 12 8 0 35 -8 18 -9 17 -9 -7z"/>
<path d="M8480 5613 c0 -13 5 -23 10 -23 13 0 13 11 0 30 -8 12 -10 11 -10 -7z"/>
<path d="M4723 2699 c-7 -7 -13 -22 -13 -33 0 -16 2 -18 9 -7 7 11 11 10 19
-5 6 -10 14 -16 18 -12 4 4 2 13 -3 20 -6 7 -12 21 -14 31 -3 15 -6 16 -16 6z"/>
<path d="M4561 2664 c0 -11 3 -14 6 -6 3 7 2 16 -1 19 -3 4 -6 -2 -5 -13z"/>
<path d="M4627 2638 c-7 -26 -1 -38 19 -38 20 0 29 27 14 45 -17 21 -27 19
-33 -7z"/>
<path d="M4562 2605 c0 -16 2 -22 5 -12 2 9 2 23 0 30 -3 6 -5 -1 -5 -18z"/>
<path d="M4733 2613 c-7 -3 -13 -11 -13 -18 0 -7 -7 -15 -15 -19 -27 -10 -16
-26 19 -26 24 0 36 -5 39 -17 3 -10 5 -2 6 18 1 39 -17 69 -36 62z"/>
<path d="M4465 2571 c-3 -5 -1 -12 5 -16 5 -3 10 1 10 9 0 18 -6 21 -15 7z"/>
<path d="M4610 2560 c-12 -8 -11 -10 8 -10 12 0 22 5 22 10 0 13 -11 13 -30 0z"/>
<path d="M4250 2036 c0 -32 16 -66 31 -66 14 0 1 61 -17 80 -12 12 -14 11 -14
-14z"/>
<path d="M4790 1969 c9 -15 8 -24 -1 -35 -6 -8 -8 -18 -4 -22 4 -4 10 -1 12 6
4 10 8 10 19 1 18 -15 32 -3 16 13 -7 7 -12 22 -12 35 0 16 -6 23 -20 23 -18
0 -19 -3 -10 -21z"/>
<path d="M4154 1880 c3 -14 6 -34 6 -44 0 -14 3 -17 10 -10 7 7 5 21 -5 45
-11 24 -15 27 -11 9z"/>
<path d="M4628 1823 c7 -3 16 -2 19 1 4 3 -2 6 -13 5 -11 0 -14 -3 -6 -6z"/>
<path d="M4210 1706 c0 -8 5 -18 10 -21 6 -3 10 1 10 9 0 8 -4 18 -10 21 -5 3
-10 -1 -10 -9z"/>
<path d="M4240 1620 c0 -5 5 -10 10 -10 6 0 10 5 10 10 0 6 -4 10 -10 10 -5 0
-10 -4 -10 -10z"/>
<path d="M4267 1571 c6 -25 19 -35 27 -22 3 4 -3 16 -14 26 -18 16 -18 16 -13
-4z"/>
<path d="M4312 1480 c0 -14 2 -19 5 -12 2 6 2 18 0 25 -3 6 -5 1 -5 -13z"/>
<path d="M4357 1419 c6 -6 9 -18 6 -25 -3 -8 0 -21 6 -28 8 -10 9 -16 1 -21
-5 -3 -10 -11 -10 -16 0 -6 10 -3 22 5 28 20 49 21 42 1 -4 -8 -1 -15 6 -15
18 0 1 61 -24 87 -11 13 -30 23 -40 23 -15 0 -17 -3 -9 -11z"/>
<path d="M4311 1345 c1 -19 18 -51 18 -35 0 8 -4 22 -9 30 -5 8 -9 11 -9 5z"/>
<path d="M4260 1275 c-18 -22 -7 -28 23 -12 15 8 24 17 20 20 -11 12 -30 8
-43 -8z"/>
<path d="M4347 1273 c-4 -3 -7 -15 -7 -25 0 -26 24 -17 28 10 3 21 -8 29 -21
15z"/>
<path d="M4376 1201 c-3 -5 1 -14 9 -21 12 -10 15 -10 15 3 0 19 -16 31 -24
18z"/>
<path d="M6970 9710 c-8 -5 -10 -10 -5 -10 6 0 17 5 25 10 8 5 11 10 5 10 -5
0 -17 -5 -25 -10z"/>
<path d="M8105 9674 c11 -8 20 -18 20 -22 0 -4 7 -6 15 -4 83 18 154 24 171
14 22 -14 29 -15 29 -3 0 19 -81 29 -147 19 -46 -7 -68 -7 -76 1 -6 6 -16 11
-21 11 -6 0 -2 -7 9 -16z"/>
<path d="M6695 9660 c-38 -10 -99 -30 -135 -43 -36 -14 -90 -35 -120 -46 -55
-21 -89 -46 -78 -57 4 -3 24 3 45 14 87 46 222 98 287 112 30 6 60 18 66 26 7
7 11 14 9 13 -2 0 -35 -9 -74 -19z"/>
<path d="M8010 9660 c-13 -9 -13 -10 0 -10 8 0 22 5 30 10 13 9 13 10 0 10 -8
0 -22 -5 -30 -10z"/>
<path d="M8280 9626 c0 -8 5 -18 10 -21 6 -3 10 1 10 9 0 8 -4 18 -10 21 -5 3
-10 -1 -10 -9z"/>
<path d="M8330 9626 c0 -8 5 -18 10 -21 6 -3 10 3 10 14 0 12 -4 21 -10 21 -5
0 -10 -6 -10 -14z"/>
<path d="M6465 9620 c-3 -6 1 -7 9 -4 18 7 21 14 7 14 -6 0 -13 -4 -16 -10z"/>
<path d="M8382 9548 c-16 -16 -15 -28 3 -28 8 0 15 9 15 20 0 23 -2 24 -18 8z"/>
<path d="M6294 9495 c-10 -8 -14 -15 -8 -15 6 0 17 7 24 15 16 19 9 19 -16 0z"/>
<path d="M8640 9499 c0 -5 5 -7 10 -4 6 3 10 8 10 11 0 2 -4 4 -10 4 -5 0 -10
-5 -10 -11z"/>
<path d="M8470 9484 c0 -8 5 -12 10 -9 6 3 10 10 10 16 0 5 -4 9 -10 9 -5 0
-10 -7 -10 -16z"/>
<path d="M8391 9474 c0 -11 3 -14 6 -6 3 7 2 16 -1 19 -3 4 -6 -2 -5 -13z"/>
<path d="M8596 9401 c-4 -7 -5 -15 -2 -18 9 -9 19 4 14 18 -4 11 -6 11 -12 0z"/>
<path d="M6140 9380 c0 -5 5 -10 10 -10 6 0 10 5 10 10 0 6 -4 10 -10 10 -5 0
-10 -4 -10 -10z"/>
<path d="M5895 9310 c-3 -5 -2 -10 4 -10 5 0 13 5 16 10 3 6 2 10 -4 10 -5 0
-13 -4 -16 -10z"/>
<path d="M8920 9270 c0 -5 6 -10 14 -10 8 0 18 5 21 10 3 6 -3 10 -14 10 -12
0 -21 -4 -21 -10z"/>
<path d="M8925 9159 c-10 -15 0 -22 35 -24 35 -2 41 20 8 29 -31 8 -36 8 -43
-5z"/>
<path d="M5687 9133 c-20 -14 -35 -28 -32 -31 4 -5 85 47 85 54 0 10 -18 2
-53 -23z"/>
<path d="M8927 9113 c-30 -8 -13 -27 26 -30 31 -1 37 1 37 18 0 19 -20 23 -63
12z"/>
<path d="M5247 8843 c-4 -3 -7 -11 -7 -17 0 -6 5 -5 12 2 6 6 9 14 7 17 -3 3
-9 2 -12 -2z"/>
<path d="M4368 8032 c-31 -26 -57 -54 -57 -62 1 -10 2 -11 6 -2 2 6 10 12 16
12 7 0 28 16 47 35 19 19 37 35 41 35 4 0 9 7 13 15 9 25 -6 17 -66 -33z"/>
<path d="M4180 7800 c0 -5 4 -10 9 -10 6 0 13 5 16 10 3 6 -1 10 -9 10 -9 0
-16 -4 -16 -10z"/>
<path d="M4092 7718 c-7 -7 -12 -18 -12 -25 0 -18 35 0 44 22 7 18 -15 20 -32
3z"/>
<path d="M4033 7658 c-4 -7 -14 -24 -21 -38 -7 -13 -23 -40 -34 -59 -14 -22
-17 -32 -8 -29 8 2 18 13 24 24 6 10 23 34 39 52 15 18 27 37 27 42 0 15 -18
21 -27 8z"/>
<path d="M3655 7083 c-17 -37 -31 -71 -33 -75 -2 -4 1 -8 6 -8 12 0 49 77 56
118 3 17 4 32 3 32 -1 0 -16 -30 -32 -67z"/>
<path d="M120 6062 c0 -14 11 -21 26 -15 21 8 17 23 -6 23 -11 0 -20 -4 -20
-8z"/>
<path d="M274 6035 c-3 -20 -4 -39 0 -42 3 -3 0 -13 -6 -21 -10 -12 -7 -19 19
-41 29 -24 31 -31 31 -87 l0 -61 -81 -11 c-45 -6 -99 -14 -119 -18 -24 -4 -38
-2 -38 4 0 6 -11 23 -25 38 -14 15 -25 35 -25 45 0 11 -7 19 -15 19 -13 0 -15
-51 -15 -399 l0 -398 87 -5 c95 -6 98 -5 208 64 92 56 299 169 395 214 52 25
103 49 112 54 16 9 295 133 388 173 19 8 44 22 55 31 17 13 18 15 3 16 -9 0
-18 -4 -20 -8 -5 -12 -179 -73 -189 -66 -5 3 -9 -1 -9 -9 0 -16 -45 -32 -60
-22 -6 4 -10 2 -10 -3 0 -11 -66 -42 -91 -42 -11 0 -22 -7 -25 -15 -4 -8 -10
-15 -15 -15 -5 0 -9 7 -9 15 0 8 -4 15 -10 15 -17 0 -11 28 8 39 13 8 8 10
-25 11 l-43 0 0 80 c0 79 0 80 25 80 16 0 25 6 25 15 0 9 -9 15 -25 15 -20 0
-25 5 -25 25 0 23 -3 25 -50 25 -37 0 -52 4 -57 16 -9 24 -52 64 -68 64 -8 0
-15 7 -15 15 0 11 -11 15 -40 15 -37 0 -40 2 -40 29 0 20 -11 40 -36 65 -41
41 -60 45 -69 16 -6 -20 -25 -28 -25 -11 0 5 -7 17 -16 26 -9 9 -20 30 -23 47
-9 45 -29 46 -37 3z m458 -363 c-7 -2 -12 -21 -12 -43 0 -39 0 -39 -40 -39
l-40 0 0 40 0 40 40 0 c22 0 40 5 40 11 0 5 5 7 12 3 9 -6 9 -9 0 -12z m63
-249 c-11 -3 -25 -9 -32 -15 -7 -5 -13 -5 -17 1 -7 12 11 20 44 19 20 0 21 -1
5 -5z"/>
<path d="M210 6015 c-13 -16 -6 -35 15 -35 18 0 26 15 19 34 -8 20 -18 20 -34
1z"/>
<path d="M1498 5673 c7 -3 16 -2 19 1 4 3 -2 6 -13 5 -11 0 -14 -3 -6 -6z"/>
<path d="M1425 5660 c-13 -5 -14 -9 -5 -9 8 0 24 4 35 9 13 5 14 9 5 9 -8 0
-24 -4 -35 -9z"/>
<path d="M800 5575 c0 -8 7 -15 15 -15 9 0 12 6 9 15 -4 8 -10 15 -15 15 -5 0
-9 -7 -9 -15z"/>
<path d="M850 5523 c0 -10 4 -14 8 -8 4 6 11 13 16 18 5 4 2 7 -7 7 -10 0 -17
-8 -17 -17z"/>
<path d="M878 5508 c5 -5 16 -8 23 -6 8 3 3 7 -10 11 -17 4 -21 3 -13 -5z"/>
<path d="M837 5493 c-15 -14 -5 -21 28 -20 37 1 46 11 19 21 -20 8 -39 8 -47
-1z"/>
<path d="M2502 5465 c0 -16 2 -22 5 -12 2 9 2 23 0 30 -3 6 -5 -1 -5 -18z"/>
<path d="M2460 5305 c-19 -23 -4 -267 21 -343 15 -46 2 -222 -22 -296 -24 -74
-18 -84 11 -19 32 72 49 132 60 219 13 101 19 107 97 102 35 -2 63 -1 63 3 0
23 -117 26 -146 4 -10 -8 -22 -15 -26 -15 -16 0 -58 295 -47 333 9 31 7 33
-11 12z"/>
<path d="M2320 5180 c0 -5 -9 -19 -21 -31 -12 -12 -18 -27 -14 -39 3 -10 1
-21 -5 -25 -6 -4 -8 -20 -4 -40 4 -22 -2 -57 -16 -103 -18 -56 -20 -74 -11
-91 8 -15 9 -27 2 -39 -10 -16 -10 -15 -11 3 -1 19 -2 18 -12 -3 -8 -16 -17
-21 -31 -16 -19 6 -19 5 2 -17 20 -21 30 -79 13 -79 -4 0 -17 21 -29 48 -21
46 -22 46 -22 15 -1 -17 6 -38 14 -47 8 -8 11 -17 7 -20 -17 -11 -11 -137 6
-135 19 3 25 -2 12 -11 -12 -8 -15 -37 -15 -160 -1 -82 2 -150 6 -150 4 0 3
-15 -2 -32 -5 -18 -12 -46 -15 -63 -3 -16 -10 -35 -16 -43 -19 -22 -58 -105
-53 -110 3 -3 6 -3 8 -1 1 2 21 29 44 59 22 30 48 69 58 85 10 17 33 53 51 81
18 27 42 79 54 115 12 35 28 68 36 72 21 12 17 37 -6 37 -11 0 -20 5 -20 10 0
6 5 10 10 10 6 0 5 8 -2 20 -11 17 -10 22 2 30 12 7 12 13 4 27 -7 12 -8 31
-2 57 5 24 5 68 -2 115 -6 42 -11 167 -11 279 0 111 -2 202 -4 202 -3 0 -5 -4
-5 -10z m-103 -522 c-3 -8 -6 -5 -6 6 -1 11 2 17 5 13 3 -3 4 -12 1 -19z m105
-216 c3 -20 3 -45 0 -54 -7 -30 -30 4 -32 48 -3 53 -2 54 14 48 8 -3 16 -22
18 -42z"/>
<path d="M22 5029 c-19 -7 -22 -15 -21 -56 0 -26 3 -43 6 -36 2 7 24 22 49 34
24 12 53 32 65 45 l20 22 -48 0 c-26 0 -58 -4 -71 -9z"/>
<path d="M2724 4941 c11 -11 23 -21 28 -21 14 0 -1 19 -25 31 -22 12 -22 12
-3 -10z"/>
<path d="M0 4891 c0 -25 6 -27 13 -6 4 8 2 17 -3 20 -6 4 -10 -3 -10 -14z"/>
<path d="M2630 4600 c-13 -8 -12 -10 3 -10 9 0 17 5 17 10 0 12 -1 12 -20 0z"/>
<path d="M2427 4573 c-4 -3 -7 -13 -7 -22 1 -13 3 -13 11 2 11 19 8 33 -4 20z"/>
<path d="M2623 4507 c-13 -5 -23 -16 -23 -22 0 -7 -7 -18 -15 -25 -18 -15 -20
-43 -3 -38 6 2 16 13 22 23 6 10 22 28 35 40 27 25 17 38 -16 22z"/>
<path d="M2400 4396 c0 -2 9 -6 20 -9 11 -3 18 -1 14 4 -5 9 -34 13 -34 5z"/>
<path d="M2040 3909 c0 -5 5 -7 10 -4 6 3 10 8 10 11 0 2 -4 4 -10 4 -5 0 -10
-5 -10 -11z"/>
<path d="M2000 3881 c0 -11 -1 -25 -3 -33 -2 -7 1 -3 7 10 5 12 13 22 18 22 4
0 8 5 8 10 0 6 -7 10 -15 10 -8 0 -15 -9 -15 -19z"/>
<path d="M1910 3600 c-13 -8 -12 -10 3 -10 9 0 17 5 17 10 0 12 -1 12 -20 0z"/>
<path d="M1300 3520 c0 -5 5 -10 10 -10 6 0 10 5 10 10 0 6 -4 10 -10 10 -5 0
-10 -4 -10 -10z"/>
<path d="M1655 3220 c-3 -5 -2 -10 4 -10 5 0 13 5 16 10 3 6 2 10 -4 10 -5 0
-13 -4 -16 -10z"/>
<path d="M1570 3130 c0 -5 -10 -10 -22 -10 -17 0 -19 -3 -10 -12 10 -10 17 -7
34 10 12 12 17 22 10 22 -6 0 -12 -4 -12 -10z"/>
<path d="M1448 3093 c7 -3 16 -2 19 1 4 3 -2 6 -13 5 -11 0 -14 -3 -6 -6z"/>
<path d="M1560 3059 c0 -5 5 -7 10 -4 6 3 10 8 10 11 0 2 -4 4 -10 4 -5 0 -10
-5 -10 -11z"/>
<path d="M1530 3030 c-9 -6 -10 -10 -3 -10 6 0 15 5 18 10 8 12 4 12 -15 0z"/>
<path d="M1018 2863 c7 -3 16 -2 19 1 4 3 -2 6 -13 5 -11 0 -14 -3 -6 -6z"/>
<path d="M8715 2590 c-3 -5 1 -10 10 -10 9 0 13 5 10 10 -3 6 -8 10 -10 10 -2
0 -7 -4 -10 -10z"/>
<path d="M8685 2550 c-3 -5 -1 -10 4 -10 6 0 11 5 11 10 0 6 -2 10 -4 10 -3 0
-8 -4 -11 -10z"/>
<path d="M880 2520 c0 -5 5 -10 10 -10 6 0 10 5 10 10 0 6 -4 10 -10 10 -5 0
-10 -4 -10 -10z"/>
<path d="M755 2350 c-3 -5 -2 -10 4 -10 5 0 13 5 16 10 3 6 2 10 -4 10 -5 0
-13 -4 -16 -10z"/>
<path d="M400 2285 c0 -14 2 -25 4 -25 2 0 6 11 8 25 3 14 1 25 -3 25 -5 0 -9
-11 -9 -25z"/>
<path d="M720 2225 c0 -8 2 -15 4 -15 2 0 6 7 10 15 3 8 1 15 -4 15 -6 0 -10
-7 -10 -15z"/>
<path d="M746 2165 c-3 -8 -1 -15 4 -15 6 0 10 7 10 15 0 8 -2 15 -4 15 -2 0
-6 -7 -10 -15z"/>
<path d="M8620 2016 c0 -8 5 -18 10 -21 6 -3 10 3 10 14 0 12 -4 21 -10 21 -5
0 -10 -6 -10 -14z"/>
<path d="M8005 1939 c-11 -17 0 -20 21 -4 17 13 17 14 2 15 -9 0 -20 -5 -23
-11z"/>
<path d="M2 1730 c0 -14 2 -19 5 -12 2 6 2 18 0 25 -3 6 -5 1 -5 -13z"/>
<path d="M7810 1458 c1 -14 34 -58 44 -58 3 0 -2 16 -11 35 -17 35 -33 46 -33
23z"/>
<path d="M7880 1366 c0 -3 16 -38 35 -78 19 -40 41 -100 50 -133 9 -33 31 -91
47 -130 17 -38 40 -92 52 -120 12 -27 30 -63 39 -80 l18 -30 -6 43 c-3 23 -12
62 -20 85 -8 23 -15 51 -15 61 0 10 -8 24 -17 31 -9 7 -17 19 -19 27 -1 9 -5
26 -9 38 -5 15 -4 20 4 16 6 -4 11 -2 11 3 0 6 -4 11 -8 11 -5 0 -15 19 -22
43 -7 23 -15 36 -17 29 -5 -13 -53 79 -53 101 0 12 -70 94 -70 83z"/>
<path d="M8574 1294 c13 -27 52 -51 64 -39 3 2 -7 7 -22 11 -14 3 -26 9 -26
13 0 4 -7 16 -15 27 -15 17 -15 16 -1 -12z"/>
<path d="M8938 1234 c-18 -20 -41 -44 -50 -53 -10 -8 -18 -18 -18 -22 0 -5 74
-62 107 -82 10 -6 13 12 13 93 0 55 -4 100 -9 100 -5 0 -24 -16 -43 -36z"/>
<path d="M8790 1200 c8 -5 20 -10 25 -10 6 0 3 5 -5 10 -8 5 -19 10 -25 10 -5
0 -3 -5 5 -10z"/>
<path d="M7665 1040 c-3 -5 -1 -10 4 -10 6 0 11 5 11 10 0 6 -2 10 -4 10 -3 0
-8 -4 -11 -10z"/>
<path d="M8119 758 c4 -17 12 -33 19 -36 15 -5 15 10 0 43 -16 35 -27 31 -19
-7z"/>
<path d="M7663 570 c-31 -13 -29 -20 7 -20 20 0 30 5 30 15 0 17 -5 18 -37 5z"/>
<path d="M7520 500 c0 -5 7 -10 16 -10 8 0 12 5 9 10 -3 6 -10 10 -16 10 -5 0
-9 -4 -9 -10z"/>
<path d="M8420 477 c0 -3 24 -20 53 -37 28 -18 54 -36 57 -39 3 -4 34 -26 70
-50 36 -24 90 -65 120 -91 30 -26 65 -52 78 -59 12 -6 22 -17 22 -24 0 -7 14
-25 30 -41 24 -23 33 -27 42 -18 10 10 -5 29 -63 85 -42 39 -97 90 -122 112
-26 22 -47 45 -47 52 0 6 -10 15 -22 19 -13 4 -25 9 -28 13 -14 17 -62 54 -56
44 10 -17 3 -16 -41 6 -40 21 -93 37 -93 28z"/>
<path d="M8905 100 c-7 -11 56 -80 74 -80 21 0 9 25 -29 58 -23 19 -41 29 -45
22z"/>
</g>
</svg>
